<?xml version="1.0" encoding="utf-8"?>
<!-- Generator: Adobe Illustrator 23.0.4, SVG Export Plug-In . SVG Version: 6.00 Build 0)  -->
<svg version="1.1" id="Layer_1" xmlns="http://www.w3.org/2000/svg" xmlns:xlink="http://www.w3.org/1999/xlink" x="0px" y="0px"
	 viewBox="0 0 555.5 610.9" style="enable-background:new 0 0 555.5 610.9;" xml:space="preserve">
<style type="text/css">
	.st0{fill:#5599D3;}
	.st1{fill:#FFFFFF;}
	.st2{fill:#31393C;}
</style>
<title>Fortitude</title>
<path class="st0" d="M16.1,102.3C15.7,96,19.2,90.1,25,87.6c33.9-15.5,151.5-65.7,254.6-67.7C384,17.8,503.3,72.3,535.4,87.9
	c5.1,2.4,8.5,7.6,8.6,13.3c0.8,59.4,0.8,326.9-255.8,499.8c-5.4,3.6-12.4,3.5-17.8-0.1C217.9,565.6,41.2,434.2,16.1,102.3z"/>
<path class="st1" d="M74.5,141.9c-0.3-4.8,2.5-9.3,6.9-11.3c26.5-11.9,118.7-50.7,199.4-52.3c81.9-1.6,175.5,40.5,200.5,52.6
	c4,1.8,6.5,5.7,6.6,10.1c0.6,41.2-5.9,256.6-200.4,385.7c-4.2,2.8-9.6,2.8-13.8,0C239.7,504.1,93.8,393.5,74.5,141.9z"/>
<path class="st2" d="M280.7,534.5c-3.6,0-7.1-1-10.1-3c-17.6-11.6-63.1-45.5-106.7-108C109.1,344.7,77,250.2,68.8,142.3l0,0
	c-0.5-7.2,3.6-14,10.3-16.9c26.6-12,119.9-51.2,201.7-52.8c82.6-1.6,176.3,40.3,203.1,53.1c5.9,2.8,9.7,8.6,9.9,15.2
	c0.6,42.3-6.2,260-202.9,390.5C287.7,533.4,284.3,534.5,280.7,534.5z M80.2,141.5c8.1,105.8,39.5,198.4,93.1,275.5
	c42.5,61,86.6,93.7,103.6,105c2.3,1.5,5.2,1.5,7.5,0c191.8-127.2,198.4-339.5,197.8-380.8c-0.1-2.2-1.4-4.2-3.4-5.1
	c-26.2-12.6-117.9-53.6-197.9-52c-79.6,1.5-171.1,40-197.2,51.8C81.5,136.8,80,139,80.2,141.5L80.2,141.5z"/>
<path class="st2" d="M280.6,610.9c-4.4,0-8.6-1.3-12.3-3.7c-87.6-58-237.9-200.6-261.2-503.8l0,0c-0.6-8.7,4.4-16.8,12.4-20.4
	C54,67.6,174.8,16.8,280.7,14.7c2,0,4-0.1,6-0.1c105.4,0,222.9,52.5,256.9,68.8c7.2,3.3,11.8,10.4,12,18.3
	c1,72.8-9.8,143.4-32.2,209.6c-41.4,122.3-119,221.9-230.5,295.9C289.2,609.7,285,611,280.6,610.9z M18.5,102.6
	c23,298.4,170.4,438.3,256.2,495.2c3.6,2.4,8.2,2.4,11.7,0.1c109.4-72.6,185.4-170.2,226-290c22-65,32.6-134.2,31.6-205.8
	c-0.1-3.6-2.3-6.8-5.5-8.2c-34-16.4-153.2-69.7-257.6-67.6c-103.7,2-222.7,52.1-256.7,67.4C20.6,95,18.3,98.6,18.5,102.6z"/>
<path class="st0" d="M245.5,368.8c0-20.3,18.8-36.7,39.2-36.7l0,0c20.4,0,35.8,16.4,35.8,36.7v42c0,1,0.8,1.8,1.8,1.8h45.2
	c2.5,0,4.5-2,4.5-4.5c0-0.1,0-0.2,0-0.4l-20-164.1c-0.2-2.3-2.1-4.1-4.5-4.1H212.6c-2.3,0-4.3,1.8-4.5,4.1l-20,164.1
	c-0.2,2.5,1.7,4.6,4.1,4.8c0.1,0,0.2,0,0.4,0h51c1,0,1.8-0.8,1.8-1.8l0,0L245.5,368.8z"/>
<path class="st2" d="M369.1,420.3h-49.5c-4.2,0-7.6-3.4-7.6-7.6v-42.9c0-17.6-14.3-31.9-31.9-31.9c-17.6,0-31.8,14.3-31.9,31.9v43
	c0,4.2-3.4,7.6-7.6,7.6H191c-5.7,0-10.3-4.6-10.3-10.3c0-0.3,0-0.5,0-0.8V409l20.3-167.8c0.5-5.3,4.9-9.3,10.2-9.3h137.4
	c5.3,0,9.7,4.1,10.2,9.3l20.4,168.1c0.5,5.7-3.8,10.6-9.4,11.1C369.6,420.3,369.3,420.3,369.1,420.3L369.1,420.3z M323.3,408.9h44.4
	l-20.1-165.7H212.4l-20.1,165.7h44.4v-39.1c0-23.9,19.4-43.3,43.3-43.3s43.3,19.4,43.3,43.3V408.9z"/>
<path class="st0" d="M340.4,138.5v14.3c0,7.5-6.2,13.6-13.7,13.6c0,0,0,0,0,0l0,0c-7.5,0-13.7-6.1-13.7-13.6c0,0,0,0,0,0v-14.3
	c0-2.7-2.2-4.9-4.9-4.9c0,0,0,0,0,0h-9.5c-2.7,0-4.9,2.2-4.9,4.8c0,0,0,0,0,0v13.9c0.1,7-5.2,13-12.1,13.9
	c-7.5,0.9-14.3-4.5-15.2-12c-0.1-0.5-0.1-1-0.1-1.5v-14.3c0-2.7-2.2-4.9-4.9-4.9c0,0,0,0,0,0h-9.5c-2.7,0-4.9,2.2-4.9,4.8v14.3
	c0,7.5-6.2,13.6-13.7,13.6l0,0c-7.5,0-13.7-6.1-13.7-13.6c0,0,0,0,0,0v-14.3c0-2.7-2.2-4.9-4.9-4.8H204c-2.7,0-4.9,2.2-4.9,4.8
	c0,0,0,0,0,0v72.7c0,2.2,1.8,4,4,4H357c2.2,0,4-1.8,4-4v-72.7c0-2.7-2.2-4.8-4.9-4.8h-10.8C342.6,133.7,340.4,135.9,340.4,138.5
	C340.4,138.5,340.4,138.5,340.4,138.5z"/>
<path class="st2" d="M355.9,220.7H204.2c-5.4,0-9.7-4.3-9.7-9.7l0,0v-72.2c0-5.8,4.7-10.5,10.5-10.5h10.6c5.8,0,10.5,4.7,10.5,10.5
	V153c-0.2,4.3,3.2,7.9,7.5,8.1c4.3,0.2,7.9-3.2,8.1-7.5c0-0.2,0-0.4,0-0.6v-14.2c0-5.8,4.7-10.5,10.5-10.5h9.4
	c5.8,0,10.5,4.7,10.5,10.5V153c0,2.2,0.9,4.3,2.6,5.8c1.7,1.5,3.9,2.2,6.1,1.9c4-0.6,6.9-4.1,6.9-8.1v-13.9
	c0-5.8,4.7-10.5,10.5-10.5h9.4c5.8,0,10.5,4.7,10.5,10.5V153c-0.2,4.3,3.2,7.9,7.5,8.1c4.3,0.2,7.9-3.2,8.1-7.5c0-0.2,0-0.4,0-0.6
	v-14.2c0-5.8,4.7-10.5,10.5-10.5h10.6c5.8,0,10.5,4.7,10.5,10.5V211C365.6,216.4,361.3,220.7,355.9,220.7L355.9,220.7z M205.9,209.3
	h148.3v-69.6h-8.8V153c0,10.6-8.6,19.2-19.2,19.2s-19.2-8.6-19.2-19.2l0,0v-13.3h-7.6v13c0.1,10.6-8.4,19.3-19,19.4
	c-10.6,0.1-19.3-8.4-19.4-19l0,0v-13.4h-7.6V153c0,10.6-8.6,19.2-19.2,19.2c-10.6,0-19.2-8.6-19.2-19.2l0,0v-13.3h-8.8L205.9,209.3z
	"/>
</svg>
