<?xml version="1.0" encoding="utf-8"?>
<!-- Generator: Adobe Illustrator 23.0.4, SVG Export Plug-In . SVG Version: 6.00 Build 0)  -->
<svg version="1.1" id="Layer_1" xmlns="http://www.w3.org/2000/svg" xmlns:xlink="http://www.w3.org/1999/xlink" x="0px" y="0px"
	 viewBox="0 0 612.8 521.2" style="enable-background:new 0 0 612.8 521.2;" xml:space="preserve">
<style type="text/css">
	.st0{fill:#FFC857;}
	.st1{fill:#FFFFFF;}
	.st2{fill:#31393C;}
</style>
<title>Dexterity</title>
<path class="st0" d="M329.7,168.6c-5.7,1.9-11.1,4.4-16.2,7.6L329.7,168.6z"/>
<path class="st0" d="M579.5,104.7c-1.7-6.8,0.1-14.1,4.9-19.3c24.2-26.5,19.1-36.1,9-43.1c-24.3-16.9-43.5,14.8-80.8,34.1
	c-50.3,26.1-122.3-1.8-191.6,34.6c-18.1,9.5-29.9,27.4-28.8,47.7c3.2,60.3-9.1,107.7-17,131.2c-0.2,0.5-0.3,1.1-0.5,1.6
	c-6.4,15.1-29.8,60.4-94.4,97.7C101.6,434.8,26.8,424.2,19,449c-15.1,48.1,70.6,72.4,116.4,66.9c105.4-12.6,93.4-65.9,212.6-58
	c73.3,4.9,108.7-55.5,108.7-89.5c0-12.2-5.3-27.4-12.1-43.3c-4.6-10.7,0.4-23.1,11.2-27.7c2.1-0.9,4.4-1.5,6.8-1.6
	c25.9-1.8,45.6-2.9,57.2-10.6c29.4-19.6,51.8-113.6,53.2-128.3c0.6-6.2-1.8-12.4,1.3-17.8C582.2,124.7,581.6,112.5,579.5,104.7z"/>
<path class="st1" d="M282.4,289.3c8.5-25.2,21.9-77.6,15.9-143.9c-0.9-10,4.3-19,12.4-24.9c63.7-46.3,147.7-22.7,207.4-44
	c43.7-15.6,56.2-50.8,80.3-34c11.2,7.8,16.2,18.7-18,52.4c-61.5,60.6-168.7,16.9-244,68.3c-1.9,1.2-3,3.4-2.9,5.6
	c0.6,16,2.1,83.8-15,141.9c-10.3,35.1-21.5,31.7-29.8,20.7C279.7,319.4,277.6,303.6,282.4,289.3z"/>
<path class="st2" d="M299.6,345c-5.5,0-10.8-3.3-15.8-10c-10-13.3-12.7-31.1-7.2-47.6c8.4-24.9,21.5-76.4,15.6-141.5
	c-1-11.5,4.5-22.8,14.9-30.3c40-29.1,86.5-31.5,131.4-33.8c28.2-1.5,54.8-2.8,77.5-11c17.3-6.2,29.3-15.5,39.9-23.7
	c14.5-11.3,28.2-21.9,45.9-9.6c4.3,3,10.1,8,10.8,16.3c1,11.2-7.7,25.2-28.1,45.3c-33.8,33.3-81.2,36.6-127.1,39.7
	c-40.9,2.8-83.2,5.7-117.7,29.2c-0.2,0.1-0.3,0.2-0.3,0.4c0.8,19,1.9,85.6-15.3,143.8c-6,20.5-13,30.7-22.1,32.4
	C301.3,344.9,300.5,345,299.6,345z M586,44.1c-6.1,0-12.4,4.6-22.6,12.5c-10.7,8.3-24,18.7-43.2,25.5c-24.4,8.7-51.8,10.1-80.9,11.6
	c-43.2,2.2-87.8,4.6-125,31.6c-7,5.1-10.6,12.2-10,19.5c6,67.3-7.6,120.6-16.2,146.4l0,0c-4.3,12.7-2.2,26.4,5.4,36.5
	c3.1,4.1,5.4,5.3,6.5,5.2c0.6-0.1,6.2-1.7,12.7-23.9c17-57.9,15.3-126.8,14.8-140c-0.2-4.3,1.9-8.4,5.5-10.8
	c37.1-25.4,81.1-28.4,123.6-31.3c45.7-3.1,88.9-6.1,119.5-36.3c21.1-20.8,25-30.9,24.6-35.7c-0.2-2.6-1.9-4.8-5.8-7.5
	C591.8,45.2,588.9,44.1,586,44.1z"/>
<path class="st2" d="M336.6,214l-6.4-10.1c21.9-13.9,63.6-18.6,107.9-23.7c52.7-6,112.5-12.8,130.8-36.6
	c19.7-25.6,7.1-44.5,6.6-45.3l9.8-6.9c0.8,1.1,18.4,26.6-6.9,59.5c-21.4,27.8-81.2,34.6-139,41.2C396.6,197,356.1,201.6,336.6,214z"
	/>
<path class="st2" d="M331.6,263.1L327,252c37.3-15.5,89.8-18.5,136.1-21.2c42.6-2.5,82.9-4.8,94.3-16.5c22.8-23.5,1.7-61.3,1.4-61.7
	l10.4-5.9c4.4,8.2,7.5,17,9.3,26.1c3.9,20.1-0.4,37.3-12.6,49.8c-14.7,15.1-53.3,17.3-102.2,20.1C418.5,245.4,367,248.3,331.6,263.1
	z"/>
<path class="st2" d="M318.8,322.6l-4.8-11c63.1-27.5,117.5-25.9,157.2-24.8c20.6,0.6,36.9,1.1,46.4-3c15.3-6.5,24.3-18.6,27-35.9
	c1.2-8.5,1-17.1-0.7-25.6l11.7-2.8c4.7,19.2,3.7,59.6-33.2,75.3c-12,5.1-29.4,4.6-51.4,4C432.3,297.7,379.5,296.1,318.8,322.6z"/>
<path class="st2" d="M129.8,521.1c-37.7,0-94.7-13.5-116.5-39.8C4.5,470.7,1.8,458.4,5.7,446c4.7-14.9,26.4-18.8,59.4-24.8
	c33.3-6,79-14.2,120-38c75-43.5,92.8-98.6,93-99.1l11.5,3.5c-0.7,2.4-19.1,60-98.4,106c-42.9,24.9-89.7,33.3-123.9,39.5
	c-24.5,4.4-47.6,8.6-50.1,16.6c-2.7,8.6-0.9,16.5,5.4,24.2c21.5,25.9,86.8,38.8,120.2,34.8c45-5.4,67.6-18.3,89.5-30.9
	c28.2-16.2,54.9-31.5,122.8-26.9c35.9,2.4,59.4-12,72.8-24.6c19.8-18.5,28.7-42.8,28.7-58.7c0-18.1-13.8-48.5-23.8-70.6l10.9-5
	c11.1,24.4,24.9,54.8,24.9,75.6c0,17.1-8.5,45-32.5,67.4c-15.1,14.1-41.6,30.5-81.8,27.8c-64.2-4.3-88.2,9.4-116,25.4
	c-21.8,12.5-46.6,26.7-94,32.4C139.4,520.9,134.6,521.2,129.8,521.1z"/>
</svg>
