<?xml version="1.0" encoding="utf-8"?>
<!-- Generator: Adobe Illustrator 23.0.4, SVG Export Plug-In . SVG Version: 6.00 Build 0)  -->
<svg version="1.1" id="Layer_1" xmlns="http://www.w3.org/2000/svg" xmlns:xlink="http://www.w3.org/1999/xlink" x="0px" y="0px"
	 viewBox="0 0 611 474" style="enable-background:new 0 0 611 474;" xml:space="preserve">
<style type="text/css">
	.st0{fill:#FFC857;}
	.st1{fill:#31393C;}
</style>
<title>Intelligence</title>
<path class="st0" d="M45.9,383.4c0,0,24.5,103.5,82.5,68.6c0,0,9.3-45.3,90.7-60.5c0,0,58.1,18.6,130.2,7c0,0,93,57,131.4-67.4
	c0,0,133.7-9.3,125.5-111.6S455.1,50.9,455.1,50.9S383,21.8,342.3,27.7c0,0-76.7-14-102.3,10.5c0,0-39.5-7.2-40.7,19.6
	c0,0-41.8-25.5-116.2,81.5c0,0-34.9,33.7-24.4,52.3C58.7,191.5-8.8,281.1,45.9,383.4z"/>
<path class="st1" d="M102.4,474c-5.6,0-11.1-1.1-16.2-3.3c-33.2-14-48.1-68.9-50.2-77.2c-49.3-93.4-0.4-177.4,11.4-195.4
	C41,176.3,69.1,147.3,74.5,142c31.6-45.3,61.6-73.2,89.2-83c11.8-4.2,20.9-4.2,27.1-3.1c1.6-4.2,4.3-7.9,7.8-10.8
	c11.2-8.9,28.5-8.1,36.1-7.2c28.2-22.1,92.8-12.2,104.7-10.2c42.3-5.3,112.4,22.7,115.4,23.9l0.3,0.2c6,2.8,147,69.3,155.4,174.7
	c2.2,27.6-5.1,51.4-21.8,70.8c-32,37.1-88.4,46.3-105.6,48.3c-13.3,40.1-33.8,65.6-61.1,76c-34.4,13-67.9-2.7-77.1-7.7
	c-65.5,10-118.6-4-129.2-7.1c-38.2,7.4-58.8,21.8-69.3,32.5c-11.4,11.7-13.8,21.8-13.8,21.9l-0.7,3.1l-2.7,1.7
	C120.1,471.3,111.1,474,102.4,474z M183.8,70c-14.9,0-48.2,10-97.6,80.9l-0.9,1.1c-12.4,12-28.3,34.1-23.1,43.4l2.4,4.2l-2.9,3.8
	c-0.6,0.9-63.9,87.1-12.2,183.9l0.5,0.8l0.2,0.9c3.7,15.5,18.4,58.1,41.9,68c8.4,3.5,17.4,2.7,27.3-2.6c4-11.7,22.4-49.2,95.5-62.8
	l1.8-0.3l1.8,0.6c0.6,0.2,57.5,17.9,126.8,6.7l2.7-0.4l2.3,1.4c0.3,0.2,34,20.3,66.8,7.8c23.8-9,41.9-33,53.7-71.2l1.5-4.8l5-0.4
	c0.7,0,67.4-5.2,100.5-43.7c14-16.2,20.1-36.4,18.2-59.9c-7.6-95.4-141.2-159.8-146.7-162.4c-4-1.6-71.5-28-108.8-22.7l-1.2,0.2
	l-1.2-0.2c-20.3-3.7-77.2-9.3-95.9,8.5l-2.7,2.6l-3.7-0.7c-5.3-0.9-20.6-2.1-27.9,3.7c-2.6,2.1-3.9,5-4.1,9L203.2,78l-10.6-6.5
	C192.5,71.5,189.5,70,183.8,70z"/>
<path class="st1" d="M409.8,339.1c-3.9-2.7-7.9-5.2-12.1-7.3c-3.1-1.3-5.9-3.2-8.2-5.6c-4.6-4.5-7.1-10.7-6.6-17.2
	c0-0.8,0.1-1.5,0.2-2.3c0.1-1,0.2-2,0.1-3.1c-0.1-1.2-0.1-2.5-0.1-3.8c0-1,0-2-0.1-3c-0.2-1.2-2.1-3.5-3.5-5.1
	c-1.4-1.6-2.7-3.2-3.8-5c-0.9-1.4-2-2.6-3.2-3.7c-1.8-1.7-3.3-3.5-4.8-5.4c-1.3-1.8-2.8-3.5-4.4-5c-0.8-0.8-1.5-1.6-2.3-2.4
	c-1.5-1.6-3-3.3-4.5-5.1c-4.1-4.7-8.3-9.6-12.7-12.1c-2.3-1.3-10.2-5.4-11.8-6.2c-1-0.5-2.6-1.4-4.4-2.3c-2.1-1.2-6.1-3.3-7.2-3.7
	c-1.9-0.4-3.8-0.6-5.7-0.4c-2.2,0.1-4.4,0-6.6-0.3c-3.2-0.4-9.2-1.1-10.7-1s-2.9,0.2-4.3,0.2c-2.3,0-4.7,0.2-6.9,0.7
	c-2.8,0.5-5.7,0.8-8.5,0.9c-1.6,0.1-3,0.2-3.7,0.3c-1.7,0.3-3.3,0.7-4.9,1.3c-1.9,0.6-3.9,1.2-5.8,1.6c-2.8,0.5-4.9,1.6-8.3,3.5
	l-3.9,2.2c-2.4,1.4-4.9,2.7-7.4,4c-1.3,0.7-7.1,4.8-8.7,6l-0.9,0.7c-1.8,1.4-4,3.2-4.8,4.6c-1.2,2.1-1.5,2.8-1.2,5.1l-14.6,1.9
	c-0.7-4.9,0.3-9.9,2.9-14c2.2-3.9,5.7-6.7,8.5-9l0.9-0.7c3.5-2.6,7.2-5.1,10.9-7.3c2.4-1.3,4.8-2.6,7.2-4l4-2.2
	c3.6-2,7.4-4.1,12.6-5.1c1.4-0.3,2.8-0.7,4.2-1.2c2.4-0.8,4.8-1.4,7.3-1.8c0.8-0.1,2.6-0.2,4.6-0.4s5.3-0.4,6.2-0.6
	c3.2-0.7,6.6-1.1,9.9-1.1c1.2,0,2.5-0.1,3.8-0.2c3.4-0.3,13.3,1.1,13.8,1.1c1.5,0.2,2.9,0.2,4.4,0.1c3.4-0.2,6.7,0.2,10,1
	c2.3,0.7,5.5,2.4,10.2,4.9c1.5,0.8,2.9,1.6,3.7,2c1.8,0.9,10.2,5.2,12.8,6.7c6.5,3.7,11.8,9.8,16.5,15.2c1.4,1.6,2.8,3.2,4.1,4.7
	c0.7,0.8,1.4,1.5,2.1,2.1c2.2,2.1,4.2,4.5,6,7c0.9,1.2,1.9,2.3,3,3.3c2,1.9,3.8,4,5.4,6.4c0.8,1.1,1.6,2.2,2.5,3.2
	c2.7,3.2,6.1,7.2,6.9,12.7c0.2,1.7,0.3,3.3,0.2,5c0,0.9,0,1.7,0,2.5c0.1,1.8,0.1,3.6-0.1,5.4c0,0.6-0.1,1.1-0.1,1.7
	c-0.2,2.3,0.7,4.6,2.4,6.1c1.1,1.1,2.3,1.9,3.7,2.5c4.1,1.8,11.6,6.6,14.7,8.8L409.8,339.1z"/>
<path class="st1" d="M550.1,290.7l-9.5-2.8l4.3-8c1.4-2.4,3.4-4.3,5.8-5.5c0.3-0.2,0.7-0.4,1-0.6c2-1.8,4.3-3.3,6.7-4.5
	c0.5-0.3,1.1-0.6,1.7-0.9s1.3-0.7,2.2-1.1l0.4-0.2c0-0.2,0-0.4,0-0.5c-0.1-4.8,0.3-9.3,0.7-13.6c0.3-3.9,0.6-7.6,0.6-11.5
	c0-4.3-0.1-7.1-0.9-10.1c-0.3-1.1-0.6-2.3-0.8-3.5c-0.5-2.6-0.8-3.9-1.5-4.3c-3.3-2.3-9.9-2-15.6-1.7c-2,0.1-4,0.2-5.8,0.2v-14.7
	c1.6,0,3.3-0.1,5.1-0.2c7.7-0.4,17.2-0.8,24.7,4.3c5.7,3.9,6.8,9.7,7.6,13.6c0.2,0.8,0.3,1.7,0.5,2.5c1.1,4.6,1.6,9.3,1.4,14
	c0,4.4-0.3,8.6-0.7,12.7c-0.3,4.2-0.7,8.1-0.6,12.2c0,0.3,0,0.6,0,0.8c0.1,2.1,0.3,6.6-3.6,10.2c-1.6,1.3-3.4,2.4-5.2,3.2
	c-0.5,0.2-0.9,0.4-1.2,0.6c-0.7,0.4-1.4,0.8-2.1,1.1c-1.3,0.6-2.6,1.4-3.7,2.4c-1,0.9-2.2,1.7-3.3,2.4c-0.3,0.2-0.7,0.4-1,0.6
	c0.2-0.2,0.4-0.5,0.6-0.8l-5.7-3.1L550.1,290.7z"/>
<path class="st1" d="M305.1,127.8c-2.5-5.2-2.8-17.5,1.8-23.9c1.3-1.7,2.8-3.2,4.4-4.6l0.6-0.5c1.3-1.1,2.6-2.1,4.1-3
	c0.6-0.4,1.1-0.8,1.7-1.2l1.9-1.4c2.5-2,5.2-3.9,8-5.6c3.1-1.7,6.4-3,9.8-3.7c0.7-0.2,1.5-0.4,2.2-0.6c2.2-0.7,4.3-1.5,6.5-2.4
	c4.2-1.8,9-3.8,14.8-4.2c2.2-0.3,4.5-0.8,6.6-1.5c0.9-0.3,1.8-0.5,2.7-0.8c4.3-1.1,8.7-1.4,13.1-0.9c3.5,0.4,6.9,1,10.4,1.8
	c4.4,0.9,8.6,1.9,12.5,1.7c1.6-0.1,3.1,0,4.7,0s3.2,0.1,4.6,0c3.4-0.1,6.8,0.3,10.2,1.1c1.1,0.2,2.1,0.5,3.2,0.6
	c2.4,0.2,4.8,0.3,7.1,0.2c1.6,0,3.1-0.1,4.6,0c3.5,0.2,6.9,0.8,10.2,2c1.7,0.5,3.4,1,5.2,1.2l3,0.3c3.2,0.3,6.3,0.7,9.4,1.4
	c3.1,0.6,6.2,0.8,9.3,0.7h1.4c4.5,0,8.6,0.4,12.6,0.8l1.4,0.1c2.9,0.3,5.8,0.9,8.7,1.6c1.9,0.5,3.9,0.9,5.9,1.2
	c0.4,0,0.8,0.1,1.3,0.1c2.8-0.1,5.5,0.6,7.9,1.9c2,1.3,3.8,2.9,5.3,4.7c0.4,0.4,0.7,0.8,1.1,1.2s1.2,1.3,2.1,2.4
	c1.1,1.3,4,4.7,5.2,5.4c-1.3-0.6-2.8-0.6-4.1,0l5.6,13.7c-7.3,3-13.4-4.3-17.9-9.6c-0.5-0.6-1-1.2-1.3-1.5c-0.6-0.6-1.1-1.2-1.7-1.8
	c-0.5-0.6-1.1-1.2-1.7-1.7c-0.3,0-0.5,0-0.8,0c-0.9,0-1.9-0.1-2.8-0.2c-2.5-0.4-5-0.8-7.4-1.5c-2.1-0.6-4.3-1-6.5-1.3l-1.4-0.1
	c-3.9-0.3-7.6-0.7-11.5-0.7h-1.4c-4.1,0.1-8.3-0.3-12.3-1.1c-2.6-0.5-5.2-0.9-7.8-1.1l-3.2-0.4c-2.6-0.4-5.2-1-7.8-1.8
	c-2-0.7-4.1-1.2-6.2-1.4c-1.3,0-2.6,0-4,0c-3.2,0.2-6.5,0-9.7-0.4c-1.3-0.2-2.7-0.5-4-0.8c-2-0.5-4.1-0.8-6.2-0.8
	c-2.1,0.1-4,0.1-5.8,0.1c-1.3,0-2.6-0.1-3.9,0c-5.8,0.2-11.1-0.9-16.2-2c-2.9-0.7-5.8-1.2-8.7-1.6c-2.6-0.3-5.2-0.1-7.8,0.5
	l-2.5,0.7c-3.1,1-6.3,1.7-9.5,2.1c-3.4,0.3-6.6,1.6-10.3,3.1c-2.6,1.1-5.3,2.1-8,3c-0.8,0.2-1.7,0.5-2.5,0.7
	c-2.1,0.5-4.2,1.2-6.1,2.2c-2.3,1.4-4.4,3-6.5,4.6l-2,1.5c-0.8,0.6-1.6,1.1-2.5,1.7c-0.8,0.5-1.5,1-2.1,1.6l-0.7,0.6
	c-0.6,0.6-2,1.8-2.4,2.3c-0.9,1.6-1,7.2-0.3,9.1L305.1,127.8z"/>
<path class="st1" d="M60.5,208.6c-3.4,0-6.6-1.3-9-3.7l10.3-10.6c-0.4-0.3-0.9-0.5-1.4-0.4c1.8-0.3,6.3-4.6,8.5-8
	c1.3-2,2.9-3.8,4.7-5.4c1.1-1,2.1-2.1,2.9-3.4c8.5-18.9,48.7-45.1,52.5-46c0.5-0.1,1-0.3,1.5-0.5c1.3-0.5,2.6-0.8,4-1.1
	c2.4-0.4,10.9-1.4,13.6-1.5c3.7-0.1,7.5,0.2,11.1,1.1l1.5,0.3c3.9,0.7,19.5,5.5,21.6,6.4l1.1,0.4c3.7,1.4,8,3.1,11.7,6.4
	s7.3,6.6,9.6,10.8c0.6,1.1,1.1,2.2,1.6,3.4c1,2.3,2.2,4.5,3.6,6.6l-12.1,8.4c-2-2.8-3.7-5.9-5.1-9.1c-0.3-0.8-0.6-1.5-1-2.2
	c-1.3-2.3-4.4-5.1-6.5-6.9c-1.7-1.5-4.4-2.6-7.2-3.6l-1.2-0.5c-1.8-0.7-16.3-5.1-18.9-5.6l-1.6-0.3c-2.5-0.6-5.1-0.9-7.7-0.8
	c-1.8,0.1-9.7,1-11.6,1.3c-0.6,0.2-1.3,0.3-1.9,0.6c-0.6,0.2-1.2,0.4-1.8,0.6c-6.5,3.6-37.8,25.3-43.5,38c-1.5,2.9-3.5,5.6-5.9,7.8
	c-1,0.9-1.9,1.9-2.6,2.9c-0.3,0.5-8.7,13.5-19.2,14.8C61.5,208.5,61,208.6,60.5,208.6z M132.5,145.3L132.5,145.3z"/>
<path class="st1" d="M477.3,343.7l-2.5-14.5c3.8-0.7,7.5-1.8,11.1-3.3c1.7-0.7,3.4-1.6,5-2.5c1.4-0.8,2.9-1.4,4.5-1.8
	c0.6-0.2,1.2-0.4,1.8-0.7c3-1.7,12.3-7,14.1-13.2c0.2-0.7,0.4-1.4,0.5-2.1c0.9-3.8,2.3-9.5,8.2-13c3.8-2.3,7.8-4.2,12-5.8
	c4.1-1.6,6.2-2.9,8.7-5.1c1.3-1.2,2.8-2.3,4.3-3.3c0.5-0.3,1-0.7,1.5-1c0.3-0.2,0.6-0.5,0.9-0.7c1.6-1.4,3.4-2.5,5.3-3.4l5.6,13.7
	c-0.5,0.3-1,0.6-1.4,1c-0.5,0.4-1,0.9-1.6,1.3s-1.3,0.9-2,1.4c-0.8,0.5-1.6,1.1-2.4,1.7c-3.9,3.6-8.4,6.4-13.4,8.1
	c-3.4,1.3-6.6,2.9-9.8,4.7c-0.5,0.3-0.8,1.3-1.5,3.9c-0.2,0.9-0.4,1.8-0.7,2.6c-3.1,10.7-13.4,17.6-21,21.9c-1.5,0.8-3,1.4-4.6,1.9
	c-0.6,0.2-1.2,0.4-1.8,0.7c-2.1,1.2-4.3,2.3-6.6,3.3C486.9,341.4,482.2,342.8,477.3,343.7z"/>
<path class="st1" d="M377,424.9c-1.7,0-3.3-0.5-4.7-1.4c-2.1-1.4-3.4-3.8-3.4-6.3l14.7-0.2c0-2-0.9-3.9-2.5-5.2
	c-1.2-1.1-2.8-1.6-4.5-1.5c1.7-0.5,3.3-1,4.9-1.7c1.2-0.5,2.5-0.9,3.8-1.2c2.7-0.5,13.2-3.4,16-5l1.2-0.7c4.6-2.7,9.8-5.8,12.9-9.2
	c2.2-2.3,3.3-4.7,4.8-8c0.6-1.3,1.2-2.7,2-4.1c0.6-1.1,1.2-2.1,1.9-3.2c0.6-0.8,1.1-1.7,1.4-2.6c0.6-1.6,0.8-3.4,0.9-5.1
	c0-2.5,0-5,0-7.5c0-2.7,0-5.4,0-8s-2.1-5.9-5.3-8.2l-0.4-0.2c-1.2-0.4-2.3-0.9-3.3-1.5l-1.2-0.7c-6.9-3.9-11-6.7-12.9-9.9l12.6-7.5
	c-0.1-0.2-0.2-0.4-0.4-0.5c0.8,0.9,3.4,2.5,7.8,5c0.9,0.5,1.6,0.9,1.9,1.1c0,0,0.2,0,0.4,0.1c1.3,0.4,2.6,1.1,3.8,1.9
	c7.2,5.2,11.5,12.7,11.6,20.1c0,2.8,0,5.6,0,8.3c0,2.4,0,4.8,0,7.2c0,3.2-0.5,6.3-1.5,9.4c-0.7,2.3-1.8,4.4-3.1,6.4
	c-0.4,0.6-0.8,1.3-1.2,2c-0.6,1.3-1.2,2.5-1.7,3.6c-1.8,3.9-3.6,7.9-7.4,11.9c-4.6,4.9-10.8,8.6-16.2,11.8l-1.2,0.7
	c-5.4,3.2-17.6,6.1-20.4,6.8c-0.4,0.1-0.9,0.3-1.6,0.6C383.2,423.6,379.9,424.9,377,424.9z M388.3,421.7l-0.6,0.1
	C387.9,421.8,388.1,421.8,388.3,421.7L388.3,421.7z"/>
<path class="st1" d="M50.4,417.3c-2.3-0.1-4.4-1.1-5.9-2.8c-4.3-5-2.5-18.7-2.4-18.8c0.8-5.8,2.4-11.4,4.9-16.6c0.9-1.8,2-3.4,3.3-5
	c0.7-0.9,1.3-1.8,1.8-2.7c1.5-2.8,3.6-5.3,6.1-7.2c0.5-0.5,1.1-1,1.8-1.5c1.9-1.7,3.8-3.2,6-4.5c0.6-0.4,1.1-0.7,1.7-1.1
	c0.4-0.3,11-7.7,15.4-9c1.4-0.4,2.9-0.6,4.3-0.8c0.6,0,1.2-0.1,1.8-0.3c1-0.4,1.8-1.2,2.4-2.1c1-1.4,2.1-2.7,3.3-3.9
	c0.6-0.7,1.3-1.4,1.8-2.1c5.5-7,13.8-17.6,27.5-20l2.5,14.5c-7.5,1.3-12.7,7.3-18.4,14.5c-0.8,1-1.7,2-2.6,3
	c-0.8,0.8-1.5,1.6-2.2,2.5c-2.1,3.1-5.1,5.6-8.6,7.1c-1.9,0.8-3.9,1.2-6,1.4c-0.6,0-1.2,0.1-1.7,0.3c-3.9,2.1-7.6,4.4-11.2,6.9
	c-0.7,0.5-1.3,0.9-1.9,1.3c-1.4,0.9-2.8,1.9-4,3c-0.9,0.8-1.7,1.5-2.4,2.1c-1,0.7-1.9,1.6-2.5,2.7c-0.9,1.7-2,3.3-3.1,4.8
	c-0.7,0.9-1.3,1.8-1.9,2.8c-1.7,3.8-2.9,7.9-3.4,12c-0.3,3-0.3,6,0.1,9c-1-2.5-3.3-4.1-6-4.1L50.4,417.3z"/>
<path class="st1" d="M297.4,387.4c-2,0-3.8-0.1-5.6-0.3c-0.9-0.1-1.8-0.1-2.7-0.2c-0.6,0-1.1,0-1.7-0.1c-1.3,0-2.5-0.1-3.7-0.2
	c-1.9-0.2-3.7-0.7-5.4-1.4c-0.4-0.1-0.8-0.3-1.3-0.5c-1.4-0.4-2.8-0.9-4.2-1.4c-1.4-0.6-2.9-1-4.4-1.4c-1.2-0.3-2.4-0.7-3.6-1.2
	l-0.6-0.2h-2.3l-0.6-0.1c-1.3-0.2-2.6-0.7-3.6-1.5h-1c-1.9,0-3.9-0.3-5.8-0.7c-0.8-0.2-1.7-0.5-2.4-0.9l-0.1-0.1
	c-0.7-0.1-1.4-0.1-2.1-0.1s-1.1,0-1.7-0.1c-2.8-0.3-5.6-0.1-8.3,0.4c-5.8,1.3-10.6-0.2-14.5-1.8l-0.6-0.2c-2.5-0.9-4.8-2.2-6.7-4.1
	c-1.2,1.2-2.5,2.2-3.9,3.1c-4.2,2.8-12.4,7.1-20.5,4.7c-3.3-1-7.9-3.5-10.6-9.8c-0.7-1.7-1.3-3.3-1.8-4.9c-0.4-1.4-0.9-2.7-1.5-4
	c-0.2-0.3-0.3-0.7-0.6-1c-0.4-0.6-0.7-1.1-1-1.7c-0.4-0.9-0.8-1.8-1.1-2.7c-0.1-0.2-0.1-0.5-0.2-0.7c0.2,0.5,0.6,0.9,1,1.2l9.7-11
	c1.7,1.6,3,3.7,3.6,6c0.1,0.2,0.1,0.4,0.2,0.6s0.2,0.4,0.4,0.7c0.4,0.7,0.9,1.4,1.2,2.2c0.9,1.9,1.6,3.9,2.2,5.9
	c0.4,1.3,0.8,2.5,1.3,3.5c0.6,1.4,1.1,1.6,1.3,1.6c1.4,0.4,4.6-0.5,8.2-2.9c0.9-0.5,1.7-1.3,2.4-2.2l0.4-0.6c1.3-1.7,5.2-7,12.8-4.6
	c2.9,0.7,5.3,2.8,6.5,5.6c0.4,0.6,0.4,0.6,2.1,1.3l0.6,0.2c2.7,1.1,4.3,1.4,5.8,1.1c4-0.8,8.1-1,12.1-0.7h1.4c1.2,0,2.3,0.1,3.5,0.2
	c1.6,0.2,3.2,0.6,4.6,1.4l0.1,0.1c0.8,0.1,1.6,0.2,2.5,0.2c1.9,0,3.8,0.3,5.6,0.7l3.6,1c1.3,0.3,2.6,0.7,3.9,1.2
	c0.4,0.1,0.9,0.4,1.1,0.4c2.2,0.5,4.3,1.1,6.3,1.9c1.1,0.4,2.1,0.8,3.3,1.1c0.9,0.3,1.7,0.6,2.6,0.9c0.4,0.2,0.9,0.4,1.4,0.4
	c0.9,0.1,1.8,0.1,2.7,0.1c0.7,0,1.4,0,2.1,0.1c1,0,2,0.1,3.1,0.2c2.3,0.2,4.5,0.3,6.8,0.1c1.7-0.2,3.6-0.6,5.5-1.1
	c1.5-0.3,3-0.7,4.5-1c1.3-0.3,2.5-0.8,3.7-1.5c2.6-1.4,5.4-2.4,8.4-2.9l2,14.6c-1.4,0.3-2.7,0.8-4,1.5c-2.3,1.3-4.9,2.2-7.5,2.7
	c-1.3,0.2-2.6,0.5-3.9,0.8c-2.2,0.5-4.4,1-6.8,1.3C300.2,387.3,298.8,387.4,297.4,387.4z M248.5,377.4L248.5,377.4z"/>
</svg>
