<?xml version="1.0" encoding="utf-8"?>
<!-- Generator: Adobe Illustrator 23.0.4, SVG Export Plug-In . SVG Version: 6.00 Build 0)  -->
<svg version="1.1" id="Layer_1" xmlns="http://www.w3.org/2000/svg" xmlns:xlink="http://www.w3.org/1999/xlink" x="0px" y="0px"
	 viewBox="0 0 558.1 609.5" style="enable-background:new 0 0 558.1 609.5;" xml:space="preserve">
<style type="text/css">
	.st0{fill:#E63947;}
	.st1{fill:#31393C;}
</style>
<title>Strength</title>
<path class="st0" d="M18.4,399.4l79.8,187.8c2.3,5.5,7.3,9.3,13.2,10.2c125.8,18.9,420.6-37.7,431.9-122
	c7.3-54.9,2.6-68.6-0.9-105.4c-6.1-64.4-16.1-209.9-125.8-258c0,0,3.4-55.4-32.9-92.7c-5.6-5.7-13.2-8.9-21.2-8.9h-75.1
	c-10.6-0.1-20.8,3.8-28.5,11c-3.9,3.8-7,23-7,28.2v68.5c0,11.4,5.4,22,14.5,28.8c19.3,14.4,54,36.4,79.3,31.4
	c10.6-2.1,28.8-17.4,36-19.4c10.4-2.8,9.6,11.2,11.6,19.2c10.6,41.6,26.1,119.6,18.6,171.9c-1.5,10.4-6.9,19.9-15.2,26.3l4.1-3.5
	c-4.5,3.5-10.9,2.7-14.4-1.8c-0.4-0.5-0.8-1.1-1.1-1.7c-9.2-18.5-39.1-47.6-104.5-39.5c-46,5.7-72.7,48.2-83,68.6
	c-2.1,4.1-7.2,5.7-11.3,3.6c-0.7-0.4-1.3-0.8-1.9-1.4c-18.6-17.7-111-54.4-161.3-19.2C17.7,385.4,15.6,392.9,18.4,399.4z"/>
<path class="st1" d="M205.5,609.5c-18.8,0.1-37.6-1.1-56.2-3.7c-0.9-0.1-2.9-0.4-5.7-0.7C95,599.4,88.5,596,86,590.2L4.4,398.7
	c-4.2-9.9-0.8-21.4,8-27.5c55.4-38.2,151.9,1.1,172.5,20.5c0.3,0.3,0.7,0.4,1.1,0.3c0.4-0.1,0.7-0.3,0.9-0.7
	c10.2-20.1,39.4-67.7,90.6-74c70.8-8.7,99.5,26.3,110.3,48c0.4,0.8,1.2,1.4,2.1,1.6c0.9,0.2,1.9,0,2.7-0.6
	c6.9-5.3,11.5-13.1,12.7-21.6c8.4-57.6-10.8-150.4-23.6-185.9c-6.1,7.4-16.9,14.9-36.2,18.8c-27.4,5.4-62.5-15.2-87.1-33.4
	c-11.1-8.3-17.6-21.3-17.6-35.1v-70c0-7.1,3.5-13.8,10.3-19.9c9.2-8.1,21-12.5,33.2-12.3h76.9c10.1,0,19.8,4.1,26.9,11.3
	c31.7,32.4,35.6,67.3,35.9,80.2c109.7,53.8,122.4,191.8,128.5,258.6l0.8,8.2c0.7,7,1.4,13.2,2,19.1c2.9,25.4,5,43.8-1.2,90.1
	c-2.5,18.9-15.3,37.1-37.9,54.1C448.4,579.4,308,609.5,205.5,609.5z M98.7,582.9c3.7,1.6,15,4.1,46.6,7.8c2.9,0.3,5.1,0.6,6.1,0.8
	c96.3,14.5,279.5-17.2,356-74.7c19.4-14.6,30.2-29.5,32.2-44.4c6-44.5,4-61.2,1.1-86.5c-0.7-6-1.4-12.2-2.1-19.4l-0.8-8.2
	c-6.4-69.9-18.4-200-124.4-248.7l-4.6-2.1l0.4-5.1c0-0.4,2.5-39.1-31.6-74c-4.3-4.4-10.3-6.9-16.5-6.9h-76.9
	c-8.6-0.1-17,2.9-23.5,8.6c-2.5,2.3-5.5,5.7-5.5,9.1v70c0,9.2,4.4,17.9,11.7,23.4c31,23,58.5,34.2,75.6,30.8
	c21.9-4.4,28.8-13.7,30.9-18.8c1.5-3.6,4.9-6,8.8-6.1h0.3c3.8,0,7.2,2.2,8.8,5.6c13.1,27.7,38.1,135.8,28.3,202.8
	c-1.8,12.3-8.4,23.4-18.2,31c-7.7,6-18.9,4.7-24.9-3c-0.7-0.9-1.3-1.9-1.9-3c-9.1-18.2-33.5-47.7-95.5-40
	c-44.2,5.4-70.2,48-79.4,66.1c-3.9,7.8-13.5,10.9-21.3,7c-1.4-0.7-2.6-1.6-3.7-2.6c-15.9-15-105.7-52.5-154.2-19.1
	c-3.1,2.2-4.3,6.3-2.8,9.8L98.7,582.9z"/>
</svg>
