<svg id="Layer_1" data-name="Layer 1" xmlns="http://www.w3.org/2000/svg" viewBox="0 0 598.33 296.46"><defs><style>.cls-1{fill:#5599d3;}.cls-2{fill:#fff;}.cls-3{fill:#31393c;}</style></defs><title>Wisdom1</title><path class="cls-1" d="M20.87,182.1c-8-2.54-4.62-15.86,2.57-20.17C65.53,136.82,181.61,25,304.27,25c123.39,0,239.58,92.48,288.1,106.85,7.92,2.35,8.7,13.8,3.12,19.92C561.61,188.92,463.15,308,304.27,308,162.79,308,76.47,199.78,20.87,182.1Z" transform="translate(-13 -19.47)"/><path class="cls-2" d="M174.49,57a152.85,152.85,0,1,0,267.08-2.13S373.84,23,297.48,25.84,174.49,57,174.49,57Z" transform="translate(-13 -19.47)"/><path class="cls-1" d="M415.6,39.94C441.15,46.3,439,88.09,439,116.42A136.79,136.79,0,1,1,175.22,65.25S282.64,6.85,415.6,39.94Z" transform="translate(-13 -19.47)"/><path class="cls-3" d="M308.62,315.93c-107.79,0-184.29-55.68-240.15-96.33C50,206.17,34.08,194.6,20.81,188h0A14.14,14.14,0,0,1,13,175.4,21.36,21.36,0,0,1,23,157c8.55-5.09,20.8-14.23,35-24.81C114.42,90.13,208.89,19.7,308.62,19.7c91.2,0,181.59,47.6,241.41,79.09,22.12,11.65,39.6,20.85,50.08,23.83a15.18,15.18,0,0,1,10.49,10.82,20.64,20.64,0,0,1-4.51,19.17c-2.26,2.47-4.81,5.34-7.65,8.53C557.16,207.45,460.48,315.93,308.62,315.93ZM26.26,177c14.19,7.06,30.5,18.94,49.4,32.69,54.5,39.66,129.15,94,233,94C455,303.7,549.12,198.09,589.31,153c2.88-3.23,5.47-6.13,7.76-8.64a8.55,8.55,0,0,0,1.78-7.59c-.56-2-1.71-2.3-2.09-2.41-11.7-3.32-29.67-12.79-52.43-24.77C485.58,78.7,396.8,31.91,308.62,31.91,213,31.91,120.51,100.83,65.29,142c-15.06,11.23-27,20.1-36.05,25.51a9.09,9.09,0,0,0-4,7.43c.05,1.59.73,1.92,1.05,2.08Z" transform="translate(-13 -19.47)"/><path class="cls-3" d="M308.62,289.27c-87.65,0-159-71.31-159-158.95,0-28,7.13-46.46,19.46-69l.62-1.13,1-.79c2-1.51,49.06-36.92,126.49-39.75,76.94-2.8,144.08,28.28,146.9,29.61l1.76.82,1,1.69a158.93,158.93,0,0,1,20.7,78.5C467.58,218,396.27,289.27,308.62,289.27ZM179.19,68.44c-11,20.22-17.3,37-17.3,61.88,0,80.91,65.82,146.73,146.73,146.73s146.74-65.82,146.74-146.73a146.72,146.72,0,0,0-18.14-70.73c-11-4.82-72.23-30.13-139.52-27.68S186.25,63.47,179.19,68.44Z" transform="translate(-13 -19.47)"/></svg>