<?xml version="1.0" standalone="no"?>
<!DOCTYPE svg PUBLIC "-//W3C//DTD SVG 20010904//EN"
 "http://www.w3.org/TR/2001/REC-SVG-20010904/DTD/svg10.dtd">
<svg version="1.0" xmlns="http://www.w3.org/2000/svg"
 width="261.000000pt" height="261.000000pt" viewBox="0 0 261.000000 261.000000"
 preserveAspectRatio="xMidYMid meet">
<metadata>
Created by potrace 1.11, written by Peter Selinger 2001-2013
</metadata>
<g transform="translate(0.000000,261.000000) scale(0.100000,-0.100000)"
fill="#000000" stroke="none">
<path d="M1940 2539 c-30 -4 -410 -37 -845 -74 -434 -36 -810 -70 -834 -76
-33 -7 -67 -30 -137 -90 -128 -110 -126 -104 -122 -410 3 -231 4 -246 26 -286
25 -49 126 -171 181 -221 l36 -33 1 -522 1 -522 94 -33 c52 -18 202 -71 334
-117 l240 -85 140 20 c242 34 1122 148 1305 170 96 11 191 22 210 25 l35 6 -2
522 c-1 360 -4 522 -12 525 -6 2 -52 -3 -103 -12 -51 -9 -187 -27 -303 -41
-115 -14 -232 -32 -260 -40 -27 -8 -77 -14 -110 -13 -33 0 -197 -16 -365 -36
-168 -20 -360 -43 -428 -51 l-123 -14 -117 45 c-149 57 -474 194 -486 205 -15
13 4 59 29 71 l25 11 2 411 3 411 735 67 c404 37 754 67 778 67 l42 1 -2 -387
-3 -386 28 -29 c29 -28 43 -33 71 -22 14 5 16 57 16 480 0 373 -3 474 -12 473
-7 -1 -38 -5 -68 -10z m-1557 -1232 c31 -14 57 -32 57 -39 -1 -28 -40 -97 -63
-113 -15 -9 -40 -15 -59 -13 l-33 3 -3 102 -3 103 23 -9 c13 -5 49 -20 81 -34z
m2197 -93 l0 -97 -64 6 c-73 7 -130 28 -164 60 -24 22 -56 76 -50 82 3 3 235
42 266 44 9 1 12 -24 12 -95z m-1779 -77 l84 -33 3 -97 3 -98 -38 16 c-52 22
-89 60 -118 120 -27 56 -42 125 -28 125 5 0 47 -15 94 -33z m389 -17 c0 -25
-31 -81 -66 -120 -43 -48 -95 -77 -153 -86 l-41 -7 0 97 c0 53 1 96 3 97 1 0
43 7 92 14 115 16 165 18 165 5z m1388 -697 l-3 -108 -90 -12 c-49 -6 -111
-14 -137 -17 l-47 -7 15 43 c43 122 136 204 237 207 l28 1 -3 -107z m-2252 32
c52 -40 114 -188 72 -173 -7 3 -37 13 -65 22 l-53 18 0 79 c0 43 3 79 7 79 3
0 21 -11 39 -25z m564 -230 c0 -63 -2 -115 -4 -115 -6 0 -190 71 -194 75 -7 7
28 62 60 92 34 33 90 62 121 63 15 0 17 -12 17 -115z m143 99 c25 -9 64 -32
85 -53 41 -40 88 -124 72 -129 -5 -2 -66 -11 -135 -21 l-125 -17 0 118 0 118
28 0 c16 0 49 -7 75 -16z"/>
<path d="M1235 2258 c-55 -40 -229 -195 -298 -266 l-68 -69 21 -109 c46 -244
80 -368 107 -390 14 -12 84 -39 155 -60 l130 -38 17 22 c24 32 69 45 103 31
24 -10 31 -8 60 16 27 23 37 26 74 20 42 -6 44 -5 124 67 44 40 100 88 123
107 23 19 41 41 40 50 -10 81 -107 458 -122 472 -3 4 -16 10 -29 14 -22 6 -23
5 -20 -61 l3 -68 38 -9 c40 -10 50 -26 17 -28 -11 -1 -26 -2 -32 -3 -9 -1 -16
-34 -23 -101 -8 -82 -12 -94 -18 -66 -4 18 -7 62 -7 96 0 62 -1 64 -30 70 -41
9 -48 25 -10 25 36 0 37 3 43 92 l5 66 -67 30 c-36 16 -111 44 -166 62 -55 18
-104 36 -109 41 -15 13 -28 11 -61 -13z"/>
</g>
</svg>
