<svg id="Layer_1" data-name="Layer 1" xmlns="http://www.w3.org/2000/svg" viewBox="0 0 609.27 439.58"><defs><style>.cls-1{fill:#e63947;}.cls-2{fill:#31393c;}</style></defs><title>Charisma</title><path class="cls-1" d="M349.63,122.58a18.07,18.07,0,0,0-7.77,24.35l1.27,2.46L26.9,401.53A18,18,0,0,0,5.66,398h0C-3.21,402.53-.1,410,4.48,418.89l41.21,79.87c4.58,8.87,8.88,15.76,17.75,11.18h0a18,18,0,0,0,9.4-19.37L461.58,379l3.41,6.61a18.08,18.08,0,0,0,24.35,7.78c8.87-4.58,5.75-12.08,1.18-20.95L367.38,133.76C362.81,124.89,358.5,118,349.63,122.58Z" transform="translate(0 -101.68)"/><path class="cls-2" d="M76.78,541.26A15.19,15.19,0,0,1,67,537.67c-3.9-3.2-6.63-8.12-9.08-12.88L16.73,444.92C13,437.65,5.17,422.51,21,414.36a25,25,0,0,1,24.48.82L352.84,170.09A25.25,25.25,0,0,1,365,139c6.56-3.4,13.06-2.91,18.27,1.36,3.9,3.2,6.63,8.12,9.09,12.88L515.44,391.89c2.46,4.77,4.89,9.84,5.23,14.87.46,6.73-2.91,12.3-9.48,15.69a25.23,25.23,0,0,1-33.95-10.85l-.73-1.41L98.81,518.62A24.93,24.93,0,0,1,85.29,539,18.52,18.52,0,0,1,76.78,541.26ZM32.46,425.84a10.82,10.82,0,0,0-4.95,1.2c-2.21,1.14-3.12,1.61,1.89,11.34l41.21,79.86c1.23,2.38,3.51,6.8,5.45,8.39.5.41.83.68,2.69-.28a10.82,10.82,0,0,0,5.66-11.72l-1.19-6.38,400.61-115,6.09,11.81a11,11,0,0,0,14.73,4.71c1.86-1,1.83-1.39,1.79-2-.17-2.5-2.45-6.92-3.68-9.29L379.63,159.78c-1.23-2.37-3.51-6.79-5.45-8.38-.5-.41-.83-.68-2.69.27a11,11,0,0,0-4.71,14.74l4,7.66L44.85,433.9l-4.5-4.67A10.94,10.94,0,0,0,32.46,425.84Z" transform="translate(0 -101.68)"/><path class="cls-2" d="M281.91,538.32a47.64,47.64,0,0,1-14.29-2.2A45.82,45.82,0,0,1,240.22,513l-16.45-32.45a46.71,46.71,0,0,1-2.92-7.21l13.63-4.21a32.17,32.17,0,0,0,2,5l16.44,32.45a31.69,31.69,0,0,0,19,16,33.57,33.57,0,0,0,25.36-2.17l55-27.87A33.52,33.52,0,0,0,369,473.3a31.64,31.64,0,0,0-1.66-24.72L359.94,434l12.73-6.45,7.38,14.58a45.85,45.85,0,0,1,2.45,35.77,47.78,47.78,0,0,1-23.8,27.3l-55,27.87A48.21,48.21,0,0,1,281.91,538.32Z" transform="translate(0 -101.68)"/><rect class="cls-2" x="413.04" y="138.22" width="97.2" height="14.27" rx="7.13" transform="translate(115.34 381.78) rotate(-61.79)"/><rect class="cls-2" x="553.32" y="278.83" width="14.27" height="99.22" rx="7.13" transform="translate(129.77 713.06) rotate(-78.84)"/><rect class="cls-2" x="475.79" y="226.29" width="85.94" height="14.27" rx="7.13" transform="translate(-48.02 180.36) rotate(-29.13)"/></svg>