<svg id="Layer_1" data-name="Layer 1" xmlns="http://www.w3.org/2000/svg" viewBox="0 0 555.51 610.93"><defs><style>.cls-1{fill:#5599d3;}.cls-2{fill:#fff;}.cls-3{fill:#31393c;}</style></defs><title>Fortitude</title><path class="cls-1" d="M26.53,82.49A15,15,0,0,1,35.42,67.8C69.32,52.32,186.9,2.08,290,.06,394.39-2,513.71,52.47,545.81,68.15a15,15,0,0,1,8.58,13.26c.85,59.41.75,326.89-255.77,499.83a16,16,0,0,1-17.75-.07C228.33,545.81,51.68,414.44,26.53,82.49Z" transform="translate(-26.49 0)"/><path class="cls-2" d="M100.94,141.9a11.48,11.48,0,0,1,6.92-11.26c26.48-11.92,118.65-50.73,199.44-52.29,81.88-1.58,175.47,40.53,200.49,52.57a11.45,11.45,0,0,1,6.64,10.1c.61,41.22-5.9,256.6-200.38,385.69a12.59,12.59,0,0,1-13.82,0C266.22,504.15,120.28,393.46,100.94,141.9Z" transform="translate(-26.49 0)"/><path class="cls-3" d="M307.19,534.45a18.37,18.37,0,0,1-10.11-3C279.53,519.81,234,486,190.4,423.44c-54.85-78.72-86.87-173.29-95.15-281.1h0a17.25,17.25,0,0,1,10.26-16.91c26.63-12,119.88-51.21,201.68-52.79,82.59-1.58,176.33,40.26,203.08,53.13a17.14,17.14,0,0,1,9.87,15.16c.63,42.31-6.23,260-202.93,390.54A18.08,18.08,0,0,1,307.19,534.45Zm-200.55-393c8.13,105.75,39.46,198.43,93.13,275.45,42.48,61,86.61,93.74,103.62,105a6.85,6.85,0,0,0,7.5,0C502.64,394.67,509.33,182.37,508.72,141.11a5.77,5.77,0,0,0-3.41-5.05c-26.17-12.59-117.85-53.55-197.9-52-79.63,1.54-171.08,40-197.21,51.79a5.74,5.74,0,0,0-3.56,5.61Z" transform="translate(-26.49 0)"/><path class="cls-3" d="M307.13,610.93a22.27,22.27,0,0,1-12.27-3.65C207.3,549.25,57,406.63,33.62,103.43h0A20.8,20.8,0,0,1,46,83.07C80.51,67.55,201.28,16.75,307.15,14.71c2,0,4-.06,6-.06C418.53,14.65,536,67.13,570,83.48a20.69,20.69,0,0,1,12,18.35c1.05,72.85-9.79,143.37-32.21,209.6-41.41,122.3-119,221.86-230.49,295.91A21.85,21.85,0,0,1,307.13,610.93ZM45,102.56C68,400.91,215.35,540.88,301.17,597.75a10.73,10.73,0,0,0,11.74.07c109.38-72.62,185.41-170.2,226-290.05,22-65,32.64-134.23,31.6-205.78A9.34,9.34,0,0,0,565,93.77C531,77.39,411.8,24.11,307.37,26.13,203.67,28.14,84.7,78.2,50.7,93.49A9.24,9.24,0,0,0,45,102.56Z" transform="translate(-26.49 0)"/><path class="cls-1" d="M262.41,354.47c0-20.29,18.79-36.73,39.17-36.73h0c20.39,0,35.79,16.44,35.79,36.73v42a1.83,1.83,0,0,0,1.83,1.82h45.23a4.49,4.49,0,0,0,4.48-4.84l-20-164.15a4.49,4.49,0,0,0-4.49-4.12H229.58a4.49,4.49,0,0,0-4.49,4.12l-20,164.15a4.49,4.49,0,0,0,4.49,4.84h51a1.82,1.82,0,0,0,1.82-1.82Z" transform="translate(-26.49 0)"/><path class="cls-3" d="M395.54,420.34H346a7.58,7.58,0,0,1-7.57-7.57V369.82a31.87,31.87,0,0,0-63.74,0v42.95a7.58,7.58,0,0,1-7.57,7.57H217.54a10.3,10.3,0,0,1-10.27-11.12l0-.23,20.33-167.82a10.34,10.34,0,0,1,10.25-9.34H375.2a10.34,10.34,0,0,1,10.25,9.34l20.36,168.05a10.3,10.3,0,0,1-10.27,11.12Zm-45.71-11.43h44.44L374.2,243.26H238.88L218.82,408.91h44.43V369.82a43.29,43.29,0,1,1,86.58,0Z" transform="translate(-26.49 0)"/><path class="cls-1" d="M358.31,124.35v14.3a13.64,13.64,0,0,1-13.69,13.59h0a13.64,13.64,0,0,1-13.69-13.59v-14.3A4.87,4.87,0,0,0,326,119.5h-9.52a4.87,4.87,0,0,0-4.89,4.85v13.94a13.85,13.85,0,0,1-12.14,13.86,13.65,13.65,0,0,1-15.25-13.5v-14.3a4.86,4.86,0,0,0-4.88-4.85h-9.53a4.87,4.87,0,0,0-4.88,4.85v14.3a13.65,13.65,0,0,1-13.7,13.59h0a13.64,13.64,0,0,1-13.69-13.59v-14.3a4.87,4.87,0,0,0-4.88-4.85H221.89a4.86,4.86,0,0,0-4.88,4.85v72.7a4,4,0,0,0,4,4H374.85a4,4,0,0,0,4-4v-72.7A4.87,4.87,0,0,0,374,119.5H363.2A4.87,4.87,0,0,0,358.31,124.35Z" transform="translate(-26.49 0)"/><path class="cls-3" d="M382.4,220.7H230.68A9.69,9.69,0,0,1,221,211V138.77a10.54,10.54,0,0,1,10.53-10.53h10.64a10.54,10.54,0,0,1,10.53,10.53V153a7.8,7.8,0,1,0,15.59,0V138.77a10.54,10.54,0,0,1,10.53-10.53h9.4a10.54,10.54,0,0,1,10.53,10.53V153a7.8,7.8,0,0,0,2.59,5.81,7.7,7.7,0,0,0,6.11,1.94,8.07,8.07,0,0,0,6.88-8.1V138.77a10.54,10.54,0,0,1,10.53-10.53h9.4a10.54,10.54,0,0,1,10.53,10.53V153a7.8,7.8,0,1,0,15.59,0V138.77a10.54,10.54,0,0,1,10.53-10.53h10.64a10.54,10.54,0,0,1,10.53,10.53V211A9.69,9.69,0,0,1,382.4,220.7Zm-150-11.42H380.65V139.66h-8.84V153a19.22,19.22,0,0,1-38.44,0V139.66h-7.61v13a19.22,19.22,0,1,1-38.44.35V139.66h-7.61V153a19.22,19.22,0,1,1-38.44,0V139.66h-8.84Z" transform="translate(-26.49 0)"/></svg>