<svg xmlns="http://www.w3.org/2000/svg" viewBox="0 0 791.68 814.79"><defs><style>.cls-1{fill:#5599d3;}.cls-2{fill:#1c3557;}.cls-3{fill:#fff;}</style></defs><title>die</title><g id="chest"><path class="cls-1" d="M189.86,545.75l32.54-99.17a5.41,5.41,0,0,0-5.14-7.09h-358c-6.21,0-7.52,8.77-1.58,10.58l325.44,99.17A5.41,5.41,0,0,0,189.86,545.75Z" transform="translate(265.84 264.41)"/><path class="cls-2" d="M189.06,545.49l2.9-8.94c1.88-5.83,4.55-14.41,7.75-25.4l2.48-8.69,2.59-9.58c1.83-6.65,3.72-13.88,5.7-21.61l6.34-24.63.43-1.63c.1-.35-.08.25,0,.11l0-.21a1.85,1.85,0,0,0,.06-.34c-.09.1-.09.37-.12.31a.41.41,0,0,0-.14.17c0,.08,0,.17.09.29s.1.11.14.12l-1.74.1c-4.69.29-9.49.5-14.39.71-19.61.82-40.85,1.08-63.32.67s-46.16-1.7-70.67-2.94-49.84-2.12-75.57-1.93c-25.74,0-51.88.86-78,2.06l-39.16,1.71-9.76.34-4.87.17h-.3c-.66,0,.56,0,.33,0l-.6.08-.3,0c-.17,0,.11,0,.15,0a1.61,1.61,0,0,0,.55-.09c.33-.11.36-.09.52-.21s.26-.2.4-.26c.2-.24.39-.38.42-.59s.09-.34.12-.57a2.11,2.11,0,0,0-.25-.83,2.41,2.41,0,0,0-.68-.74c-.15-.05-.14-.14-.25-.14l.12,0,.29.08.58.16,2.33.65,4.65,1.3c24.77,7,49.13,13.93,72.67,20.77s46.22,13.68,67.63,20.51,41.62,13.36,60.05,20.15c18.48,6.62,35.27,13.17,50.21,18.81,7.46,2.84,14.46,5.46,21,7.79s12.45,4.52,17.86,6.38c10.82,3.72,19.37,6.5,25.21,8.34a4.76,4.76,0,0,0,5.56-.86A4.54,4.54,0,0,0,189.06,545.49Zm1.61.53-.25.65a6.37,6.37,0,0,1-1.15,1.72,6.25,6.25,0,0,1-2.89,1.75,6.11,6.11,0,0,1-2.18.22,7,7,0,0,1-1.17-.21l-1.11-.32c-5.88-1.73-14.52-4.19-25.58-7.14-5.53-1.47-11.67-3-18.38-4.66s-14-3.41-21.74-5.22c-15.54-3.65-33.13-7.58-52.17-12.39C45,515.77,24.54,509.89,3,503.65S-41.29,490.48-64.62,483s-47.44-15.29-71.91-23.29l-4.59-1.52-2.3-.76-1.31-.44a14,14,0,0,1-2.45-1.13,12.39,12.39,0,0,1-6-9.37,12.57,12.57,0,0,1,3.41-10.11,12.47,12.47,0,0,1,2.23-1.84,13.33,13.33,0,0,1,2.7-1.26,16.05,16.05,0,0,1,1.72-.42c.23,0,.7-.12.74-.11l.3,0,.61,0s1.39-.06.93,0h.3l4.87.17,9.76.34,39.16,1.71c26.14,1.2,52.29,2.06,78,2.06,25.73.19,51.06-.72,75.57-1.93s48.2-2.59,70.67-2.94,43.71-.14,63.32.67c4.9.21,9.7.42,14.39.71l1.77.1a11.54,11.54,0,0,1,3.57.69,11.14,11.14,0,0,1,5.51,4.37,11,11,0,0,1,1.78,6.6,11.13,11.13,0,0,1-.29,2c-.07.29-.09.31-.14.48l-.07.2s-.22.73-.16.52l-.61,1.57-9.49,23.6c-3,7.4-5.75,14.34-8.21,20.79l-3.59,9.25L202.44,512c-3.93,10.75-6.86,19.24-8.81,25.06Z" transform="translate(265.84 264.41)"/><path class="cls-1" d="M494.46,290.1,225.72,438.94a2.87,2.87,0,0,0-1.34,1.61L191.31,541.35a2.87,2.87,0,0,0,4.55,3.1L497.67,294.82A2.87,2.87,0,0,0,494.46,290.1Z" transform="translate(265.84 264.41)"/><path class="cls-2" d="M494.87,290.84l-8.07,4.51c-5.26,3-12.92,7.35-22.58,13.14l-7.6,4.61-8.28,5.18c-5.77,3.58-12,7.53-18.56,11.79l-21,13.55c-7.46,4.68-15.24,9.71-23.49,14.71-16.48,10.06-34.63,20.42-54.16,30.77s-40.55,20.51-62.24,31.11C258,425.55,247,431,236,436.72L227.7,441c-.27.14-.9.49-.67.35l0,0s0,0,0,.07l-.19.55-.38,1.11-1.53,4.44c-2,5.95-4,11.91-5.93,18-7.89,24.06-15.1,48.76-22,73.57l-.65,2.32-.32,1.16c0-.08-.16.58,0-.1l-.06.3c-.1.41.09-.09.08-.38a2.16,2.16,0,0,0-.61-1.73,2.08,2.08,0,0,0-1.62-.61,2.37,2.37,0,0,0-1,.27l-.18.09c-.07.06-.11.09,0,0l.45-.4,1.79-1.62,3.58-3.24,14.29-12.92,14.34-12.74L241.5,497c19.18-16.54,38.07-32.78,56.45-48.4s36.29-30.52,53.51-44.39,33.55-26.9,49.13-38.34,30-21.78,42.7-31c6.38-4.58,12.33-8.89,17.77-13s10.47-7.76,14.93-11.19c8.93-6.86,15.85-12.37,20.53-16.16,2.45-1.52.89-3.66-.07-3.89A2,2,0,0,0,494.87,290.84Zm-.82-1.49.69-.31a3.66,3.66,0,0,1,2.28,0,3.93,3.93,0,0,1,2.48,2.62,3.64,3.64,0,0,1-.15,2.42,5.14,5.14,0,0,1-1.64,1.92c-4.61,3.89-11.31,9.65-19.73,17.14-4.2,3.74-8.82,7.94-13.79,12.57s-10.36,9.62-16.06,15c-11.42,10.79-24.17,23.12-38.43,36.14s-30,26.73-46.87,41.06S328,447.1,309.2,462.17s-38.29,30.64-58.13,46.37l-15,11.78L220.88,532l-15.37,11.61-3.85,2.91L199.73,548l-.48.36-.47.34-.67.44a7.87,7.87,0,0,1-11.81-7,7.38,7.38,0,0,1,.23-1.57l.08-.29a3.94,3.94,0,0,1,.22-.67l.43-1.13.85-2.26c9.16-24.06,18-48.23,25.89-72.29,2-6,3.94-12,5.86-18l1.4-4.49.35-1.12.17-.56a5.77,5.77,0,0,1,.43-1,5.64,5.64,0,0,1,1.47-1.74,11.64,11.64,0,0,1,1.35-.84l8-4.75c10.71-6.27,21.15-12.73,31.41-19.09,20.49-12.76,40.23-25.24,59.39-36.26s37.55-21,54.82-29.59c8.62-4.34,17-8.27,24.93-12.11l22.64-10.65c7.11-3.33,13.75-6.48,19.84-9.48l8.78-4.27,7.94-4c10-5.12,17.83-9.28,23.12-12.17Z" transform="translate(265.84 264.41)"/><path class="cls-1" d="M426.91-116.56l89.94,372.63a2.11,2.11,0,0,1-4,1.42L375.85-25.19a2.11,2.11,0,0,1,0-1.9L423-117A2.11,2.11,0,0,1,426.91-116.56Z" transform="translate(265.84 264.41)"/><path class="cls-2" d="M427.74-116.75l2.17,8.86c1.43,5.78,3.61,14.23,6.59,24.93l2.4,8.44,2.77,9.23c1.89,6.43,4,13.36,6.37,20.75L455.44-21c2.5,8.32,5.25,17,7.86,26.21,5.26,18.32,10.36,38.3,15.08,59.61s8.86,44,13.24,67.39S500.91,179.78,507,204l4.57,18.25,4.85,18.29,2.54,9.15,1.28,4.58.16.57.08.29.12.63a6,6,0,0,1,0,1.59,5.71,5.71,0,0,1-.47,1.68,6,6,0,0,1-5.16,3.46,6,6,0,0,1-3.3-.82,6.21,6.21,0,0,1-2.26-2.41l-1.16-2.14L506,252.94l-4.53-8.38-18.13-33.47-8.86-16.73-8.63-16.72c-11.37-22.26-22.53-44.18-33.2-65.45s-20.77-41.95-30-61.7S384.69,12,377.39-5.61c-1.87-4.38-3.69-8.68-5.4-12.92l-1.29-3.15-.32-.78-.16-.39a7.78,7.78,0,0,1-.32-.93,8.24,8.24,0,0,1-.28-1.6,8.16,8.16,0,0,1,.4-3.18,8.23,8.23,0,0,1,.59-1.35l.22-.36,3.43-5.64,13-21c4.07-6.6,7.84-12.8,11.25-18.57s6.57-11.05,9.33-15.88c5.51-9.65,9.71-17.3,12.52-22.55l1.86-3.47c.14-.25.17-.27.26-.41a3.62,3.62,0,0,1,.43-.47,2.85,2.85,0,0,1,.91-.56,3,3,0,0,1,1.78-.12,2.91,2.91,0,0,1,1.9,1.44A3.39,3.39,0,0,1,427.74-116.75Zm-1.65.4a1.22,1.22,0,0,0-.94-.91,1.22,1.22,0,0,0-1.4.7l-1.8,3.5c-2.71,5.3-6.61,13.11-11.4,23.13q-3.59,7.52-7.74,16.71c-2.81,6.09-5.75,12.71-8.86,19.82L384-30.78l-2.68,6-.17.38a3.13,3.13,0,0,0,.27-.58,3.88,3.88,0,0,0,.22-1.53,3.89,3.89,0,0,0-.12-.78,3.6,3.6,0,0,0-.19-.53c.08.15,0-.09,0,0l.42.73,1.68,3c2.27,4,4.52,8.05,6.8,12.24,9.31,16.64,18.6,35.06,28.42,54.55s19.82,40.2,29.85,61.79,20.4,43.89,30.83,66.6l7.78,17.13,7.65,17.32,15.05,35,3.78,8.75,1.89,4.37.92,2.14a1.94,1.94,0,0,0-1.73-.9,1.6,1.6,0,0,0-1.36,1,1.75,1.75,0,0,0-.13.55c-.07.3.08.82,0,.4,0,.05-.08-.54,0,0l-.06-.29-.12-.58-1-4.66-1.91-9.3-4-18.49-4.26-18.32c-5.67-24.34-12.34-48-19.09-70.88s-13.5-44.89-19-66S453.78,27.12,450.1,8.42c-1.86-9.34-3.39-18.36-5-26.91L441-42.83c-1.3-7.64-2.55-14.79-3.8-21.37l-1.75-9.48-1.71-8.61c-2.23-10.89-4.15-19.4-5.51-25.19Z" transform="translate(265.84 264.41)"/><path class="cls-1" d="M97.24-250.06l323,125.93a5.18,5.18,0,0,1,2.71,7.23L378.22-31.58a5.18,5.18,0,0,1-7.72,1.72L92.23-241.1C87.44-244.74,91.64-252.24,97.24-250.06Z" transform="translate(265.84 264.41)"/><path class="cls-2" d="M97.55-250.85l8.64,3.33c5.64,2.16,13.95,5.25,24.59,9l8.43,2.91,9.3,3.06c6.45,2.16,13.47,4.4,21,6.76l23.92,7.55c8.38,2.76,17.24,5.53,26.39,8.69,18.31,6.26,37.92,13.63,58.41,22.05s41.79,18.12,63.85,28.06,45,19.83,68.73,28.87l8.91,3.4,1.12.43.28.11.41.17a5.92,5.92,0,0,1,.7.35,7.81,7.81,0,0,1,2.7,2.51,8,8,0,0,1,.88,7,26.69,26.69,0,0,1-1.17,2.52L423.55-112l-2.13,4.3L417.13-99l-8.37,17.39-8.24,17.5-16.4,35-.13.27a5.1,5.1,0,0,1-.31.58l-.33.58a13.45,13.45,0,0,1-1,1.36,13.52,13.52,0,0,1-.94,1,11.69,11.69,0,0,1-4.67,2.66,11.83,11.83,0,0,1-10.34-1.84l-7.85-5.53-15.5-11.17c-20.53-14.93-40.71-29.65-60.15-44s-38.09-28.43-55.56-42.06-33.93-26.58-48.66-39.16-28.12-24.25-40-34.57c-5.93-5.18-11.5-10-16.71-14.38s-10-8.44-14.33-12-8.28-6.75-11.72-9.46c-1.73-1.4-3.27-2.52-4.8-3.87a6,6,0,0,1-1.81-5.47,6.48,6.48,0,0,1,2.4-3.87,5.58,5.58,0,0,1,3.15-1.18A7,7,0,0,1,97.55-250.85Zm-.62,1.58a5.44,5.44,0,0,0-2-.29,3.81,3.81,0,0,0-2.17.86,4.67,4.67,0,0,0-1.67,2.79,3.88,3.88,0,0,0,1.33,3.67c1.29,1.06,3.08,2.28,4.81,3.56,3.53,2.59,7.65,5.49,12.26,8.75s9.77,6.79,15.42,10.58,11.76,7.91,18.34,12.23c13.14,8.67,28.09,18.3,44.06,29.24s33,23.2,50.8,36.34,36.43,27.29,55.44,42.21S332.25-69,352.15-53.22l14.93,11.93,7.44,6.07a1.53,1.53,0,0,0-1.24-.07,1.33,1.33,0,0,0-.49.37s-.07.07-.09.13a1.7,1.7,0,0,0-.26.41c0-.05.2-.3.3-.45-.3.54,0,0,0,.05l.15-.26,19.44-33.42L402-85.19,411.52-102l9.09-16.5a2.38,2.38,0,0,0-.21-2.18,2.68,2.68,0,0,0-.74-.75,1.32,1.32,0,0,0-.36-.19c-.21-.09,0,0-.14-.06l-.28-.11-1.11-.44-8.86-3.53c-23.57-9.4-47.17-17.62-70.13-25.27s-45.22-14.86-66-22.58-40.21-15.53-57.92-23.31c-8.87-3.87-17.27-7.82-25.31-11.46L166.85-219c-7.12-3.35-13.81-6.45-20-9.23l-8.92-4-8.17-3.56c-10.37-4.45-18.58-7.8-24.19-10Z" transform="translate(265.84 264.41)"/><path class="cls-1" d="M-248.27,27-101.4,84.93a8.66,8.66,0,0,0,11.1-4.54L46.57-227.33c3.78-8.5-6.66-16.17-13.64-10L-250.81,12.42A8.66,8.66,0,0,0-248.27,27Z" transform="translate(265.84 264.41)"/><path class="cls-2" d="M-248,26.19l9.7,3.79c6.33,2.46,15.65,6,27.58,10.28l9.44,3.34,10.41,3.54c7.23,2.49,15.08,5.1,23.49,7.85l26.77,8.78c9.39,3.19,19.3,6.43,29.55,10.06l7.76,2.77L-99.32,78c1.27.41.77.2,1.16.21a1.26,1.26,0,0,0,1-.74l3.09-7.16c4.64-10.76,9.61-21.8,14.85-33.1C-68.83,14.62-56.92-8.82-44.75-33.14S-20.36-82.74-9-108.88c11.59-26.06,22.58-52.88,33.26-79.85l16.08-40.35.26-.63c.22-.57-.16.43-.09.2l.1-.32.2-.65.1-.32c0-.1.09-.26,0-.2s-.14.08-.12.13a.47.47,0,0,1-.06-.25,2,2,0,0,0-.65-1,2.23,2.23,0,0,0-1.21-.55,1.21,1.21,0,0,0-.83.22c-.06.08-.13.07-.21.15a.83.83,0,0,1-.26.23l-1.89,1.72-4,3.64-7.89,7.25-62,56.33c-20.13,18.24-39.84,35.59-58.72,51.82s-36.79,31.52-53.84,45-32.79,25.78-46.73,36.67c-7,5.43-13.49,10.54-19.45,15.33S-228.28-5.07-233.17-1s-9.25,7.65-13,10.85l-2.71,2.3-1.22,1a9.35,9.35,0,0,0-1.06,1.1,7.27,7.27,0,0,0-1.66,4.62A7.73,7.73,0,0,0-250,25,9.31,9.31,0,0,0-248,26.19Zm-.62,1.58-.67-.31a8.74,8.74,0,0,1-1.85-1.15,9.52,9.52,0,0,1-3.57-7.46,9.5,9.5,0,0,1,2-5.9,11.15,11.15,0,0,1,1.12-1.25l1.28-1.17,2.63-2.39C-244,4.83-239.86,1-235.23-3.37s9.69-9.2,15.16-14.55S-208.66-29-202.39-35.27c12.57-12.44,26.61-26.64,42.3-41.7s33-31,51.5-47.69,38.21-34,58.85-51.68L14-230.7l8.19-6.91,4.11-3.46,2.16-1.81c.62-.47,1.26-.93,1.91-1.37a20.26,20.26,0,0,1,2.18-1.09,15.25,15.25,0,0,1,9.7-.63A15.84,15.84,0,0,1,50.14-241a15.12,15.12,0,0,1,3.68,8.71,22.94,22.94,0,0,1,0,2.45,23.24,23.24,0,0,1-.54,2.81,2.66,2.66,0,0,1-.14.45l-.12.32-.24.63-.12.32s-.48,1.19-.34.83l-.29.61-19.2,39c-12.87,26-25.43,52.11-37,78.17-11.77,26-22.34,52-32.27,77.31S-55.84,20.4-65.64,43.29c-4.88,11.45-9.75,22.54-14.63,33.19l-1.82,4-.9,2-.46,1a19.26,19.26,0,0,1-.94,1.75,16.06,16.06,0,0,1-13.16,7.63,15.47,15.47,0,0,1-4-.37c-.39-.09-.77-.19-1.15-.3L-103,92l-.25-.09-.82-.31-.48-.21-3.84-1.65L-116,86.46c-10-4.34-19.42-8.75-28.46-12.83L-170,61.77c-8-3.74-15.53-7.19-22.52-10.31l-10-4.52-9.18-4c-11.65-5-20.87-8.79-27.17-11.32Z" transform="translate(265.84 264.41)"/><path class="cls-1" d="M-170,409.87-95,93.61a6.68,6.68,0,0,0-4-7.76L-250,26.29a6.68,6.68,0,0,0-9,7.54l76,375.82A6.68,6.68,0,0,0-170,409.87Z" transform="translate(265.84 264.41)"/><path class="cls-2" d="M-170.8,409.67l2.33-10c1.51-6.51,3.64-16.09,6.14-28.32l1.93-9.67,2-10.64c1.41-7.4,2.84-15.41,4.33-24l4.77-27.32c1.78-9.6,3.53-19.72,5.63-30.21,4.14-21,9.23-43.62,15.28-67.37s13.27-48.61,20.64-74.35l5.49-19.48c.91-3.27,1.86-6.55,2.71-9.86l1.32-5,.16-.62.1-.48a5.19,5.19,0,0,0,0-.54,3.64,3.64,0,0,0-.28-1.36,3.67,3.67,0,0,0-2-2l-4.77-2-9.63-4c-6.46-2.59-12.93-5.23-19.49-7.73-26.12-10.3-53-20-79.94-29.32l-20.21-7-10.09-3.52-5-1.76-2.52-.88-.31-.11c.72.26,0,0,.09.05l-.64-.18c0,.12.46.14.33.16s-.16.43,0,.28c0,0,0,0,0,0l.28,1.2.61,2.59,1.22,5.17,4.65,20.62c6.08,27.42,12,54.41,17.63,80.55s10.8,51.47,15.38,75.55,8.81,46.87,12,68.06c3.32,21.16,5.86,40.65,8.29,57.89,1.19,8.63,2.35,16.69,3.51,24.13s2.18,14.28,3.21,20.44,2,11.65,2.87,16.42c.5,2.34.68,4.77,1.47,6.2a5.49,5.49,0,0,0,3.76,2.66,6.13,6.13,0,0,0,3.75-.46,6,6,0,0,0,2.09-1.77A7.75,7.75,0,0,0-170.8,409.67Zm1.65.39-.22.7a7.41,7.41,0,0,1-.95,2,7.7,7.7,0,0,1-2.73,2.38,7.94,7.94,0,0,1-4.87.67,7.63,7.63,0,0,1-5.15-3.5,7.85,7.85,0,0,1-.73-1.65c-.09-.3-.15-.43-.26-.87l-.18-.81-.75-3.42c-1-4.74-2.32-10.16-3.74-16.24s-3.1-12.79-5-20.08-3.89-15.18-6.14-23.6c-4.46-16.83-9.69-35.78-14.86-56.56-5.34-20.75-10.25-43.4-15.43-67.36s-10.27-49.3-15.18-75.59-10-53.45-15-81.08l-3.72-20.81L-265,39l-.44-2.62-.23-1.41a13.71,13.71,0,0,1-.18-2.62,13.14,13.14,0,0,1,4.28-9.41A13,13,0,0,1-252,19.48a13.09,13.09,0,0,1,3,.51l.63.23.72.26.3.13,2.44,1.08,4.88,2.16,9.78,4.32,19.58,8.65C-184.58,48.4-158.36,59.67-132.24,70c6.5,2.65,13,5.14,19.52,7.66l9.73,3.69,4.87,1.78a9.67,9.67,0,0,1,5.39,4.82,9.79,9.79,0,0,1,1,3.61,9.91,9.91,0,0,1-.07,2l-.13.79-.13.63-1.05,5c-.72,3.34-1.34,6.7-2,10L-99,129.9c-5,26.31-9.61,51.77-14.92,75.7s-10.86,46.43-16.59,67.06c-2.84,10.32-5.81,20.15-8.53,29.53l-8,26.56c-2.52,8.33-4.84,16.14-6.9,23.38l-3,10.4-2.62,9.51c-3.25,12.05-5.65,21.56-7.22,28.06Z" transform="translate(265.84 264.41)"/><path class="cls-1" d="M55.69-247.83-82.41,62.66A13.62,13.62,0,0,0-66.75,81.42L347.56-19.38a13.62,13.62,0,0,0,5-24.08L76.37-253.14A13.62,13.62,0,0,0,55.69-247.83Z" transform="translate(265.84 264.41)"/><path class="cls-2" d="M-70,90.31a22,22,0,0,1-16.91-8A22,22,0,0,1-90.17,59.2L47.93-251.28a22,22,0,0,1,14.7-12.43,22,22,0,0,1,18.87,3.8L357.71-50.23A21.93,21.93,0,0,1,366-28.11a21.93,21.93,0,0,1-16.42,17L-64.74,89.68A22.42,22.42,0,0,1-70,90.31ZM68.17-247.43a5.35,5.35,0,0,0-1.31.17,5,5,0,0,0-3.41,2.88L-74.66,66.11a5,5,0,0,0,.75,5.37,5,5,0,0,0,5.15,1.7L345.55-27.63a5,5,0,0,0,3.81-3.94,5,5,0,0,0-1.92-5.13L71.23-246.38A5,5,0,0,0,68.17-247.43Z" transform="translate(265.84 264.41)"/><path class="cls-1" d="M232.72,414.79,367.11-.59A15,15,0,0,0,349.28-19.8L-69.16,82a15,15,0,0,0-7.58,24.67l284,313.57A15,15,0,0,0,232.72,414.79Z" transform="translate(265.84 264.41)"/><path class="cls-2" d="M218.32,434.76a24.28,24.28,0,0,1-18.09-8.09l-284-313.57a24.36,24.36,0,0,1-5.28-23.71A24.36,24.36,0,0,1-71.42,72.73L347-29.08a24.28,24.28,0,0,1,23.81,7.15A24.27,24.27,0,0,1,376.2,2.35L241.81,417.73a24.32,24.32,0,0,1-18.21,16.46A25.06,25.06,0,0,1,218.32,434.76ZM352.9-10.68a5.71,5.71,0,0,0-1.36.17L-66.9,91.29A5.37,5.37,0,0,0-70.83,95a5.38,5.38,0,0,0,1.17,5.27l284,313.57a5.46,5.46,0,0,0,9.24-2L358-3.53a5.35,5.35,0,0,0-1.2-5.4A5.41,5.41,0,0,0,352.9-10.68Z" transform="translate(265.84 264.41)"/><path class="cls-1" d="M-172.57,420.83-100.32,116a15.16,15.16,0,0,1,26-6.68L201.78,414.14a15.16,15.16,0,0,1-11.24,25.34H-157.82A15.16,15.16,0,0,1-172.57,420.83Z" transform="translate(265.84 264.41)"/><path class="cls-2" d="M190.54,448H-157.82a23.52,23.52,0,0,1-18.56-9,23.52,23.52,0,0,1-4.46-20.13l72.25-304.81A23.6,23.6,0,0,1-91.46,96.6a23.59,23.59,0,0,1,23.42,7L208.07,408.44A23.66,23.66,0,0,1,190.54,448Zm-276-335.15a7.14,7.14,0,0,0-1.75.22A6.52,6.52,0,0,0-92.06,118l-72.25,304.81a6.56,6.56,0,0,0,1.26,5.67,6.56,6.56,0,0,0,5.23,2.53H190.54a6.67,6.67,0,0,0,4.94-11.15L-80.63,115A6.38,6.38,0,0,0-85.48,112.83Z" transform="translate(265.84 264.41)"/><path class="cls-1" d="M235,407.73,365.29,5a13.18,13.18,0,0,1,24.4-1.69L516,263.91a13.18,13.18,0,0,1-5.47,17.28L253.93,423.32A13.18,13.18,0,0,1,235,407.73Z" transform="translate(265.84 264.41)"/><path class="cls-2" d="M247.52,433.48a21.71,21.71,0,0,1-20.59-28.36L357.21,2.43A21.67,21.67,0,0,1,397.33-.35L523.66,260.21a21.68,21.68,0,0,1-9,28.41L258,430.74A21.68,21.68,0,0,1,247.52,433.48ZM377.85,4.41h-.35a4.52,4.52,0,0,0-4.13,3.23L243.09,410.35a4.68,4.68,0,0,0,6.73,5.54L506.43,273.76a4.69,4.69,0,0,0,1.94-6.14L382,7.05A4.47,4.47,0,0,0,377.85,4.41Z" transform="translate(265.84 264.41)"/><path class="cls-3" d="M356.57-21.93A26,26,0,0,0,368.73-43.1v-.13c.1-4.48.19-8.91.34-13.26.52-17.42,1.29-33.67,2.17-47.61s1.86-25.55,2.66-33.67c.38-4.06.78-7.26,1-9.43s.4,3.9.4,3.9.16-6.08.4-3.9.62,5.37,1,9.43c.8,8.13,1.78,19.74,2.66,33.67s1.65,30.19,2.17,47.61c.15,4.35.25,8.78.34,13.26v.13a25.55,25.55,0,0,0,12.36,21h0a16.28,16.28,0,0,0,7.38,2.43c1.07.08,2.14.17,3.2.27,9.32.8,18,2,25.47,3.36s13.67,2.88,18,4.12c2.17.59,3.88,1.21,5,1.56s1.79.62,1.79.62-.62.24-1.79.62-2.87,1-5,1.56c-4.35,1.24-10.56,2.76-18,4.12S414.16-.89,404.84-.09h-.07a24.15,24.15,0,0,0-12.59,4.91l-1.81,1.43a20.55,20.55,0,0,0-8,16c0,6-.09,12.07-.19,18q-.07,6.86-.25,13.59c-.1,4.48-.19,8.91-.34,13.26-.51,17.42-1.28,33.67-2.17,47.61s-1.87,25.55-2.67,33.67c-.39,4.06-.78,7.26-1,9.43s-.41,3.34-.41,3.34-.16-1.16-.41-3.34-.63-5.37-1-9.43c-.8-8.13-1.79-19.74-2.67-33.67s-1.65-30.19-2.17-47.61c-.15-4.35-.24-8.78-.34-13.26s-.2-9-.25-13.59c-.1-6.13-.16-12.32-.19-18.54A19.86,19.86,0,0,0,360.88,6.5L359.07,5A23.49,23.49,0,0,0,346.5-.05h-.07c-9.32-.79-18-2-25.47-3.36s-13.67-2.89-18-4.14c-2.17-.6-3.88-1.21-5-1.57s-1.79-.63-1.79-.63.62-.25,1.79-.63,2.87-1,5-1.57c4.35-1.25,10.56-2.78,18-4.14s16.15-2.56,25.47-3.36c1.14-.12,2.29-.21,3.45-.29a14.14,14.14,0,0,0,6.69-2.21Z" transform="translate(265.84 264.41)"/><path class="cls-2" d="M-87.47,97.76c0-.68-.06-1.36-.1-2,0-.39.2-2.23-.1-.88a16.18,16.18,0,0,0-.78,3q-.51.41-.15.1l.51-.42a24.43,24.43,0,0,1,4.78-3.26c.5-.23,1.6-.14,1.93-.37s-.12.07-.43-.43a7.24,7.24,0,0,1-.95-2.79,9.24,9.24,0,0,1,.31-3.53,4,4,0,0,1,.64-1.9l-.3.39q.46-.47,0-.08t-.68.54c-.54.42-1.1.81-1.66,1.22-3.16,2.34-3.19,8.27-2.61,11.74.29,1.72,2.06,8.87,5.26,6.5a19.41,19.41,0,0,0,4.68-4.24c2.21-3.18,2.6-7.53,2.57-11.28,0-4.63-1-14.64-7.31-15.11-3.31-.25-7.06,2.74-9.4,4.78-5.17,4.51-4.69,12-4.5,18.24.07,2.42.73,9.47,4.37,9.38s4-7.4,3.91-9.59Z" transform="translate(265.84 264.41)"/><path class="cls-2" d="M-88.68,84.5c-3.63,3-4.1,7.66-4.23,12.05a15.82,15.82,0,0,0,1.38,6.68c.45.92,1.62,2.88,3,2.71s2.36-1.58,2.86-2.85a19.82,19.82,0,0,0,1-6.74,11.62,11.62,0,0,1-.55,4.59q-.41,1.16-.08.44l-.8,1.5a4.87,4.87,0,0,1,.53-.71l-1,1a4.12,4.12,0,0,1,.47-.42,7.85,7.85,0,0,0,2.37-4.42A19.41,19.41,0,0,0-83.43,91c-.32-1.86-.72-4.19-2-5.62-.78-.85-2-1.83-3.21-.88Z" transform="translate(265.84 264.41)"/><path class="cls-2" d="M210.39,443.12c2.48.39,4.37,2.51,7,2.93a18.42,18.42,0,0,0,9.08-1c5.94-2.16,10-7.43,14.33-11.82,3.72-3.8,1-22-4.58-16.28-3.78,3.86-7.66,8.79-13.22,10a12.76,12.76,0,0,1-7.46-.45c-2-.86-3.36-2-5.59-2.35-5.06-.8-5.82,18,.47,19Z" transform="translate(265.84 264.41)"/><path class="cls-2" d="M108.8,265.13A71.74,71.74,0,0,1,107,253.52a42.23,42.23,0,0,1,1-12.27,43.2,43.2,0,0,1,5.28-12.78,59.37,59.37,0,0,1,11.28-13.17q4-3.59,8.37-7.2a64.43,64.43,0,0,0,7.86-7.6,30.22,30.22,0,0,0,5.25-8.38,15,15,0,0,0,.59-9.37,15.93,15.93,0,0,0-2.84-5.91,16.82,16.82,0,0,0-5.26-4.54,20.66,20.66,0,0,0-7.41-2.35,25.82,25.82,0,0,0-9.44.68,26.55,26.55,0,0,0-8.93,3.82,34.24,34.24,0,0,0-6.28,5.46,33.33,33.33,0,0,0-4.19,5.84,52.23,52.23,0,0,0-2.38,4.7L90.83,184q.71-1.22,2.75-4.53a39.86,39.86,0,0,1,5.75-7,56,56,0,0,1,9-7.18,40,40,0,0,1,12.6-5.23,38.61,38.61,0,0,1,13.44-1,29.09,29.09,0,0,1,11,3.42,25.42,25.42,0,0,1,12.44,16.34,24.1,24.1,0,0,1,0,12.48,34.17,34.17,0,0,1-5,10.33,50.72,50.72,0,0,1-7.42,8.37q-4.12,3.72-7.47,6.45a103.16,103.16,0,0,0-8.61,7.6,54.91,54.91,0,0,0-7.07,8.46,33,33,0,0,0-4.36,9.31,19.74,19.74,0,0,0-.13,10.22l56.2-13.5,2.47,10.3Z" transform="translate(265.84 264.41)"/><path class="cls-2" d="M260.34,177.24a66.86,66.86,0,0,1,1.85,20.91,52.62,52.62,0,0,1-4.46,17.94,39.05,39.05,0,0,1-10,13.48,36.2,36.2,0,0,1-31.57,7.58,39,39,0,0,1-15.06-7.46,52.52,52.52,0,0,1-12.12-14,71.41,71.41,0,0,1-9.7-40.38,52.5,52.5,0,0,1,4.46-17.94,40,40,0,0,1,10-13.57,35.49,35.49,0,0,1,31.57-7.58,40.08,40.08,0,0,1,15.08,7.54,52.65,52.65,0,0,1,12.12,14A66.87,66.87,0,0,1,260.34,177.24Zm-10.89,2.62a59.75,59.75,0,0,0-6-15.77A41.73,41.73,0,0,0,234.47,153a28.35,28.35,0,0,0-11-6,24.38,24.38,0,0,0-12.3-.12,24.71,24.71,0,0,0-11.06,5.73A28.31,28.31,0,0,0,193,162.93a41.72,41.72,0,0,0-2.91,14,65.07,65.07,0,0,0,7.82,32.57,41.7,41.7,0,0,0,8.93,11.12,27.41,27.41,0,0,0,11,5.88,25.23,25.23,0,0,0,12.44,0,24.92,24.92,0,0,0,10.92-5.61,27.44,27.44,0,0,0,7.14-10.24,41.73,41.73,0,0,0,2.91-14A59.77,59.77,0,0,0,249.44,179.86Z" transform="translate(265.84 264.41)"/></g></svg>