<svg id="Layer_1" data-name="Layer 1" xmlns="http://www.w3.org/2000/svg" viewBox="0 0 612.77 521.16"><defs><style>.cls-1{fill:#ffc857;}.cls-2{fill:#fff;}.cls-3{fill:#31393c;}</style></defs><title>Dexterity</title><path class="cls-1" d="M329.68,207.44A77.78,77.78,0,0,0,313.43,215Z" transform="translate(0 -38.86)"/><path class="cls-1" d="M569.71,107.67a21.45,21.45,0,0,1,5-19.74c24.51-27.18,19.35-37,9.11-44.16-24.58-17.31-44.12,15.18-81.92,35-51,26.72-123.89-1.8-194.12,35.49-18.3,9.72-30.27,28.08-29.15,48.91,3.29,61.81-9.19,110.4-17.23,134.54-.19.56-.35,1.13-.51,1.69-6.45,15.48-30.24,61.91-95.65,100.17C85.49,446.21,9.65,435.27,1.78,460.68-13.49,510,73.27,534.86,119.69,529.27c106.76-12.87,94.67-67.57,215.38-59.42,74.25,5,110.09-56.93,110.09-91.79,0-12.47-5.37-28.09-12.26-44.42a21.61,21.61,0,0,1,18.2-30.06c26.27-1.84,46.24-2.95,58-10.86,29.83-20.12,52.5-116.44,53.89-131.53.59-6.39-1.8-12.7,1.32-18.3C572.46,128.19,571.84,115.76,569.71,107.67Z" transform="translate(0 -38.86)"/><path class="cls-2" d="M282.4,328.2c8.45-25.15,21.91-77.61,15.94-143.93-.89-10,4.3-19,12.4-24.9,63.71-46.27,147.73-22.67,207.39-44,43.65-15.59,56.2-50.82,80.29-34,11.15,7.78,16.16,18.65-18,52.38-61.46,60.59-168.71,16.85-244,68.29a6.52,6.52,0,0,0-2.93,5.6c.63,16,2.09,83.75-15,141.9-10.32,35.08-21.51,31.7-29.77,20.7C279.67,358.27,277.63,342.42,282.4,328.2Z" transform="translate(0 -38.86)"/><path class="cls-3" d="M299.65,383.84c-5.5,0-10.79-3.35-15.77-10-10-13.33-12.69-31.11-7.16-47.57,8.35-24.89,21.5-76.38,15.65-141.48-1-11.46,4.52-22.79,14.85-30.29,40-29.08,86.48-31.49,131.41-33.83,28.17-1.46,54.79-2.84,77.48-11,17.34-6.19,29.31-15.49,39.87-23.69,14.52-11.26,28.22-21.9,45.88-9.58,4.31,3,10.13,8,10.84,16.31.95,11.2-7.73,25.16-28.12,45.26-33.83,33.35-81.25,36.6-127.12,39.74-40.93,2.81-83.25,5.71-117.69,29.24a.66.66,0,0,0-.31.4c.75,19,1.86,85.63-15.26,143.83-6,20.45-13,30.73-22.06,32.36A14.07,14.07,0,0,1,299.65,383.84ZM586,83c-6.1,0-12.39,4.62-22.61,12.54-10.71,8.32-24.05,18.68-43.2,25.51-24.35,8.7-51.81,10.13-80.89,11.64-43.18,2.24-87.83,4.56-125,31.55-7,5.07-10.61,12.18-9.95,19.5,6.05,67.29-7.57,120.59-16.23,146.38h0c-4.26,12.71-2.25,26.37,5.38,36.54,3.09,4.12,5.43,5.33,6.53,5.16.61-.11,6.16-1.73,12.69-23.94,17-57.91,15.3-126.76,14.78-140A12.43,12.43,0,0,1,333,197.11c37.12-25.37,81.1-28.39,123.63-31.3,45.7-3.13,88.86-6.09,119.52-36.32,21.06-20.76,25-30.87,24.58-35.69-.22-2.62-1.89-4.79-5.75-7.49C591.75,84.05,588.87,83,586,83Z" transform="translate(0 -38.86)"/><path class="cls-3" d="M336.59,252.9l-6.44-10.13C352,228.89,393.8,224.14,438.09,219.1c52.72-6,112.47-12.79,130.79-36.61,19.71-25.61,7.13-44.49,6.58-45.28l9.8-6.93c.76,1.07,18.44,26.63-6.87,59.53C557,217.66,497.22,224.45,439.44,231,396.57,235.9,356.08,240.5,336.59,252.9Z" transform="translate(0 -38.86)"/><path class="cls-3" d="M331.64,301.94,327,290.86c37.28-15.51,89.77-18.52,136.08-21.18,42.62-2.45,82.87-4.75,94.28-16.5,22.79-23.47,1.65-61.28,1.44-61.66l10.42-5.94a94,94,0,0,1,9.33,26.11c3.91,20.11-.44,37.35-12.58,49.84-14.66,15.11-53.29,17.32-102.2,20.13C418.45,284.26,367,287.21,331.64,301.94Z" transform="translate(0 -38.86)"/><path class="cls-3" d="M318.82,361.44l-4.8-11c63.11-27.53,117.51-25.94,157.23-24.8,20.6.61,36.85,1.08,46.38-3,15.26-6.51,24.33-18.6,27-35.93a74.7,74.7,0,0,0-.74-25.56l11.66-2.82c4.67,19.17,3.73,59.59-33.18,75.35-12,5.1-29.38,4.59-51.44,3.95C432.31,336.52,379.47,335,318.82,361.44Z" transform="translate(0 -38.86)"/><path class="cls-3" d="M129.84,560c-37.68,0-94.65-13.52-116.48-39.77-8.89-10.7-11.53-22.94-7.64-35.41,4.67-14.92,26.44-18.85,59.4-24.79,33.33-6,79-14.23,120-38,75-43.48,92.83-98.58,93-99.13l11.47,3.53c-.74,2.42-19.13,60-98.45,106-42.86,24.87-89.71,33.31-123.91,39.47-24.47,4.41-47.58,8.58-50.07,16.56-2.7,8.63-.93,16.53,5.41,24.16,21.55,25.92,86.75,38.75,120.18,34.75,45-5.38,67.63-18.34,89.49-30.87C260.48,500.28,287.15,485,355,489.55c35.88,2.39,59.39-12,72.79-24.57,19.83-18.54,28.7-42.82,28.7-58.66,0-18.12-13.77-48.46-23.82-70.61l10.93-5c11.09,24.44,24.89,54.85,24.89,75.57,0,17.08-8.51,45-32.51,67.43-15.13,14.15-41.6,30.46-81.78,27.77-64.21-4.29-88.2,9.44-116,25.36-21.83,12.51-46.58,26.69-94,32.37A123.58,123.58,0,0,1,129.84,560Z" transform="translate(0 -38.86)"/></svg>