<?xml version="1.0" encoding="UTF-8" standalone="no"?>
<svg
   xmlns:dc="http://purl.org/dc/elements/1.1/"
   xmlns:cc="http://creativecommons.org/ns#"
   xmlns:rdf="http://www.w3.org/1999/02/22-rdf-syntax-ns#"
   xmlns:svg="http://www.w3.org/2000/svg"
   xmlns="http://www.w3.org/2000/svg"
   xmlns:sodipodi="http://sodipodi.sourceforge.net/DTD/sodipodi-0.dtd"
   xmlns:inkscape="http://www.inkscape.org/namespaces/inkscape"
   height="32"
   id="Layer_1"
   version="1.1"
   viewBox="0 0 32 32"
   width="32"
   xml:space="preserve"
   sodipodi:docname="hamburger-menu.svg"
   style="fill:#ffffff"
   inkscape:version="0.92.4 (5da689c313, 2019-01-14)"><metadata
     id="metadata3729"><rdf:RDF><cc:Work
         rdf:about=""><dc:format>image/svg+xml</dc:format><dc:type
           rdf:resource="http://purl.org/dc/dcmitype/StillImage" /><dc:title></dc:title></cc:Work></rdf:RDF></metadata><defs
     id="defs3727" /><sodipodi:namedview
     pagecolor="#ffffff"
     bordercolor="#666666"
     borderopacity="1"
     objecttolerance="10"
     gridtolerance="10"
     guidetolerance="10"
     inkscape:pageopacity="0"
     inkscape:pageshadow="2"
     inkscape:window-width="2560"
     inkscape:window-height="1361"
     id="namedview3725"
     showgrid="false"
     inkscape:zoom="36.5"
     inkscape:cx="5.8082192"
     inkscape:cy="16"
     inkscape:window-x="-9"
     inkscape:window-y="-9"
     inkscape:window-maximized="1"
     inkscape:current-layer="Layer_1" /><path
     d="M 4,10 H 28 C 29.104,10 30,9.104 30,8 30,6.896 29.104,6 28,6 H 4 C 2.896,6 2,6.896 2,8 c 0,1.104 0.896,2 2,2 z m 24,4 H 4 c -1.104,0 -2,0.896 -2,2 0,1.104 0.896,2 2,2 h 24 c 1.104,0 2,-0.896 2,-2 0,-1.104 -0.896,-2 -2,-2 z m 0,8 H 4 c -1.104,0 -2,0.896 -2,2 0,1.104 0.896,2 2,2 h 24 c 1.104,0 2,-0.896 2,-2 0,-1.104 -0.896,-2 -2,-2 z"
     id="path3722"
     inkscape:connector-curvature="0" /></svg>