<svg id="Layer_1" data-name="Layer 1" xmlns="http://www.w3.org/2000/svg" viewBox="0 0 610.98 474.02"><defs><style>.cls-1{fill:#ffc857;}.cls-2{fill:#31393c;}</style></defs><title>Intelligence</title><path class="cls-1" d="M22.55,430.67S47,534.14,105.09,499.26c0,0,9.3-45.33,90.68-60.45,0,0,58.12,18.6,130.2,7,0,0,93,57,131.36-67.43,0,0,133.69-9.3,125.55-111.6S431.76,98.2,431.76,98.2,359.68,69.13,319,75c0,0-76.72-14-102.3,10.46,0,0-39.52-7.22-40.69,19.64,0,0-41.85-25.45-116.25,81.5,0,0-34.87,33.71-24.41,52.31C35.34,238.86-32.08,328.37,22.55,430.67Z" transform="translate(-1.19 -70.98)"/><path class="cls-2" d="M103.62,545a41.35,41.35,0,0,1-16.19-3.33c-33.2-14-48.15-68.94-50.23-77.18-49.31-93.36-.43-177.36,11.41-195.35-6.45-21.81,21.65-50.85,27.08-56.2,31.61-45.3,61.62-73.23,89.21-83,11.82-4.2,20.95-4.2,27.14-3.13a24.75,24.75,0,0,1,7.83-10.75c11.17-8.92,28.5-8.12,36.14-7.23,28.24-22.14,92.78-12.22,104.72-10.15C383,93.35,453.1,121.34,456.09,122.54l.34.15c6,2.78,147,69.28,155.37,174.66C614,325,606.67,348.77,590,368.1c-31.95,37.09-88.38,46.29-105.58,48.28-13.27,40.09-33.82,65.64-61.14,75.95-34.4,13-67.91-2.71-77.15-7.71-65.53,10-118.64-4-129.22-7.07-38.23,7.41-58.77,21.75-69.3,32.55-11.37,11.66-13.75,21.78-13.77,21.88l-.7,3.07-2.71,1.69C121.29,542.24,112.31,545,103.62,545ZM185,141c-14.86,0-48.24,10-97.62,80.93L86.45,223C74,235,58.11,257.14,63.33,266.42l2.36,4.2-2.89,3.84c-.64.85-63.87,87.14-12.18,183.92l.45.84.23.93c3.68,15.55,18.39,58.07,41.87,68,8.43,3.55,17.38,2.7,27.29-2.61,4-11.68,22.4-49.17,95.54-62.75l1.82-.34,1.76.56c.57.18,57.46,17.91,126.79,6.72l2.7-.43,2.32,1.42c.33.2,34,20.29,66.83,7.84,23.84-9,41.89-33,53.66-71.16l1.48-4.82,5-.35c.67-.05,67.36-5.2,100.51-43.74,14-16.23,20.09-36.4,18.21-59.93-7.58-95.39-141.21-159.79-146.71-162.4-4-1.58-71.48-28-108.8-22.72l-1.17.17-1.18-.21c-20.33-3.69-77.18-9.33-95.91,8.54l-2.71,2.59-3.69-.67c-5.27-.95-20.6-2.12-27.91,3.74-2.63,2.1-3.93,5-4.1,9L204.4,149l-10.64-6.47C193.7,142.48,190.72,141,185,141Z" transform="translate(-1.19 -70.98)"/><path class="cls-2" d="M410.94,410.07a105.5,105.5,0,0,0-12.15-7.33,25.36,25.36,0,0,1-8.25-5.58A21.8,21.8,0,0,1,383.92,380c0-.78.1-1.53.16-2.27a21.11,21.11,0,0,0,.12-3.06c-.1-1.21-.1-2.49-.09-3.78a24.07,24.07,0,0,0-.08-3c-.16-1.21-2.1-3.48-3.52-5.15a41.55,41.55,0,0,1-3.81-5,22,22,0,0,0-3.25-3.7,38.13,38.13,0,0,1-4.75-5.44,36.37,36.37,0,0,0-4.36-5c-.75-.77-1.53-1.56-2.33-2.41-1.47-1.58-3-3.3-4.5-5.07-4.08-4.71-8.31-9.58-12.66-12.08-2.28-1.31-10.22-5.42-11.81-6.18-1-.47-2.6-1.35-4.41-2.33-2.11-1.16-6.06-3.31-7.23-3.7a19.64,19.64,0,0,0-5.74-.44,42.59,42.59,0,0,1-6.58-.28c-3.25-.44-9.24-1.12-10.68-1.05s-2.88.17-4.34.22a33.64,33.64,0,0,0-6.94.7,60.48,60.48,0,0,1-8.55.93c-1.59.12-3,.22-3.66.31a32.73,32.73,0,0,0-4.92,1.28,54.08,54.08,0,0,1-5.82,1.57c-2.81.54-4.89,1.63-8.32,3.52l-3.93,2.17c-2.45,1.36-4.9,2.72-7.37,4.05-1.3.69-7.12,4.76-8.7,6l-.9.72c-1.8,1.44-4,3.22-4.8,4.58-1.16,2.09-1.47,2.8-1.19,5.07l-14.6,1.86a20.86,20.86,0,0,1,2.91-14.05c2.17-3.93,5.69-6.73,8.51-9l.85-.67A123.66,123.66,0,0,1,237.57,312c2.42-1.31,4.82-2.64,7.21-4l4-2.2c3.64-2,7.4-4.07,12.62-5.07a42.42,42.42,0,0,0,4.24-1.18,46.38,46.38,0,0,1,7.28-1.81c.82-.11,2.6-.25,4.58-.39s5.3-.4,6.18-.57a46.75,46.75,0,0,1,9.88-1.1c1.24,0,2.49-.08,3.76-.18,3.36-.28,13.34,1.07,13.77,1.13a29.56,29.56,0,0,0,4.41.15,33.24,33.24,0,0,1,10,1c2.29.66,5.51,2.37,10.17,4.92,1.52.83,2.87,1.57,3.7,2,1.81.87,10.17,5.2,12.79,6.7,6.5,3.72,11.79,9.82,16.45,15.2,1.41,1.62,2.78,3.21,4.14,4.66.71.76,1.4,1.46,2.07,2.14a50.49,50.49,0,0,1,6,7,25.33,25.33,0,0,0,3,3.34,34.28,34.28,0,0,1,5.37,6.38,30.41,30.41,0,0,0,2.5,3.17c2.74,3.22,6.15,7.22,6.9,12.71a36.9,36.9,0,0,1,.21,5c0,.86,0,1.72,0,2.53a32.48,32.48,0,0,1-.12,5.41c-.05.57-.1,1.15-.13,1.74a7.26,7.26,0,0,0,2.37,6.1,10.92,10.92,0,0,0,3.7,2.45c4.12,1.81,11.6,6.6,14.69,8.76Z" transform="translate(-1.19 -70.98)"/><path class="cls-2" d="M551.26,361.7l-9.51-2.84,4.27-7.95a14.5,14.5,0,0,1,5.85-5.54,9.15,9.15,0,0,0,1-.64,29.07,29.07,0,0,1,6.69-4.51c.54-.29,1.12-.59,1.73-.94s1.35-.71,2.17-1.1l.44-.21c0-.18,0-.35,0-.53-.06-4.78.31-9.26.66-13.6.32-3.93.62-7.63.62-11.47,0-4.27-.06-7.08-.89-10.14-.32-1.14-.56-2.32-.79-3.49-.52-2.61-.84-3.89-1.51-4.34-3.35-2.32-9.88-2-15.63-1.72-2,.1-4,.19-5.82.19V278.16c1.59,0,3.32-.09,5.1-.18,7.69-.37,17.25-.84,24.7,4.29,5.66,3.9,6.82,9.73,7.59,13.58.17.84.33,1.68.55,2.49a50.76,50.76,0,0,1,1.42,14c0,4.44-.34,8.62-.67,12.66-.34,4.19-.66,8.14-.61,12.24,0,.29,0,.56,0,.83.11,2.14.33,6.6-3.61,10.19a21,21,0,0,1-5.25,3.19c-.46.22-.9.42-1.24.61-.73.41-1.41.77-2.06,1.12a15.45,15.45,0,0,0-3.71,2.41,20.35,20.35,0,0,1-3.35,2.38,8.31,8.31,0,0,0-1,.65,2.77,2.77,0,0,0,.6-.78l-5.7-3.06Z" transform="translate(-1.19 -70.98)"/><path class="cls-2" d="M306.33,198.78c-2.47-5.2-2.83-17.54,1.76-23.92a32.11,32.11,0,0,1,4.42-4.59l.57-.52a30,30,0,0,1,4.06-3c.57-.38,1.15-.75,1.69-1.16l1.86-1.42a80.75,80.75,0,0,1,7.95-5.62,37.43,37.43,0,0,1,9.81-3.74c.73-.2,1.47-.4,2.19-.62a60.49,60.49,0,0,0,6.45-2.43c4.21-1.76,9-3.76,14.75-4.23a33.68,33.68,0,0,0,6.6-1.51c.9-.26,1.82-.53,2.74-.78a37.56,37.56,0,0,1,13.15-.94,94.13,94.13,0,0,1,10.36,1.82c4.39.95,8.56,1.88,12.55,1.71,1.57-.05,3.12,0,4.67,0s3.17.07,4.65,0a36.66,36.66,0,0,1,10.17,1.13c1.08.23,2.15.46,3.22.63a48.69,48.69,0,0,0,7.13.19c1.56,0,3.11-.06,4.58,0a36.22,36.22,0,0,1,10.18,2A32,32,0,0,0,457,153l3,.33a85.92,85.92,0,0,1,9.39,1.38,42.17,42.17,0,0,0,9.29.72l1.43,0c4.46,0,8.61.41,12.62.76l1.36.11a58.88,58.88,0,0,1,8.67,1.61,56.63,56.63,0,0,0,5.87,1.19,10.94,10.94,0,0,0,1.26.06,15.23,15.23,0,0,1,7.9,1.94,21,21,0,0,1,5.34,4.72c.36.4.71.81,1.09,1.2s1.21,1.32,2.08,2.35c1.08,1.28,4,4.69,5.19,5.41a5.11,5.11,0,0,0-4.13,0L533,188.47c-7.27,3-13.39-4.27-17.87-9.56-.54-.64-1-1.18-1.29-1.5-.59-.59-1.14-1.22-1.69-1.84a12.29,12.29,0,0,0-1.66-1.7,3.2,3.2,0,0,1-.82,0,25.43,25.43,0,0,1-2.82-.18,68.59,68.59,0,0,1-7.42-1.47,46.32,46.32,0,0,0-6.52-1.26l-1.38-.12c-3.91-.34-7.6-.66-11.5-.7l-1.39,0a55.32,55.32,0,0,1-12.32-1.07,73,73,0,0,0-7.81-1.11l-3.21-.36a43.61,43.61,0,0,1-7.76-1.84,23.87,23.87,0,0,0-6.19-1.37c-1.26,0-2.6,0-3.95,0a56.9,56.9,0,0,1-9.67-.37c-1.34-.2-2.68-.49-4-.77a25.92,25.92,0,0,0-6.24-.84c-2.06.12-4,.09-5.81.05-1.29,0-2.58-.05-3.88,0-5.83.19-11.08-.93-16.16-2a77.94,77.94,0,0,0-8.74-1.56,22.58,22.58,0,0,0-7.8.49l-2.46.7a45.51,45.51,0,0,1-9.55,2.06c-3.43.28-6.59,1.61-10.26,3.14a76.44,76.44,0,0,1-8,3c-.82.24-1.66.46-2.49.69a25,25,0,0,0-6.12,2.18,70.63,70.63,0,0,0-6.53,4.64l-2,1.5c-.78.59-1.63,1.15-2.48,1.71a19.13,19.13,0,0,0-2.15,1.55l-.66.6c-.61.55-2,1.83-2.4,2.32-.88,1.55-1,7.25-.34,9.09Z" transform="translate(-1.19 -70.98)"/><path class="cls-2" d="M61.66,279.58a12.85,12.85,0,0,1-9-3.71l10.26-10.56a1.86,1.86,0,0,0-1.36-.44c1.78-.3,6.31-4.59,8.51-8.05a32.24,32.24,0,0,1,4.65-5.43A16.8,16.8,0,0,0,77.6,248c8.46-18.87,48.72-45.08,52.45-46,.51-.13,1-.31,1.54-.48a25.89,25.89,0,0,1,4-1.11c2.4-.43,10.91-1.42,13.55-1.54a44.51,44.51,0,0,1,11.1,1.07l1.48.28c3.85.7,19.51,5.55,21.56,6.35l1.14.45c3.74,1.44,8,3.08,11.68,6.36s7.28,6.63,9.61,10.82c.6,1.1,1.1,2.2,1.63,3.4a34.2,34.2,0,0,0,3.65,6.61l-12.06,8.44a47.94,47.94,0,0,1-5.06-9.11c-.34-.78-.65-1.5-1-2.21-1.29-2.32-4.42-5.09-6.49-6.93-1.72-1.53-4.4-2.56-7.23-3.65l-1.2-.47c-1.8-.68-16.28-5.12-18.85-5.59l-1.57-.29a31.54,31.54,0,0,0-7.68-.83c-1.78.09-9.73,1-11.65,1.33a18.87,18.87,0,0,0-1.86.56c-.6.21-1.2.4-1.8.58C128,219.6,96.7,241.38,91,254a26.72,26.72,0,0,1-5.94,7.76,20.81,20.81,0,0,0-2.64,2.93c-.35.55-8.73,13.53-19.2,14.75A14.14,14.14,0,0,1,61.66,279.58Zm72-63.34h0Z" transform="translate(-1.19 -70.98)"/><path class="cls-2" d="M478.51,414.7,476,400.2a55.11,55.11,0,0,0,11.08-3.3,46.68,46.68,0,0,0,5-2.52,23.86,23.86,0,0,1,4.49-1.83,12.84,12.84,0,0,0,1.82-.66c3.05-1.73,12.29-7,14.07-13.16.2-.7.37-1.4.54-2.08.92-3.78,2.31-9.48,8.16-13a80.1,80.1,0,0,1,12-5.83c4.13-1.6,6.24-2.85,8.67-5.13a31.35,31.35,0,0,1,4.27-3.26c.5-.34,1-.67,1.47-1,.31-.23.59-.47.88-.71a19.34,19.34,0,0,1,5.3-3.38L559.33,358a6.75,6.75,0,0,0-1.43,1c-.51.43-1,.86-1.59,1.27s-1.33.94-2,1.39a19.28,19.28,0,0,0-2.37,1.74,38.32,38.32,0,0,1-13.44,8.15,65.23,65.23,0,0,0-9.77,4.71c-.5.31-.82,1.29-1.45,3.89-.21.87-.44,1.76-.69,2.65-3.09,10.73-13.44,17.64-21,21.9a23.64,23.64,0,0,1-4.58,1.88,12.56,12.56,0,0,0-1.83.67,58.82,58.82,0,0,1-6.56,3.28A71.41,71.41,0,0,1,478.51,414.7Z" transform="translate(-1.19 -70.98)"/><path class="cls-2" d="M378.16,495.87a8.19,8.19,0,0,1-4.74-1.41,7.84,7.84,0,0,1-3.43-6.34l14.72-.24a6.89,6.89,0,0,0-2.47-5.18,6.2,6.2,0,0,0-4.47-1.52,44.11,44.11,0,0,0,4.92-1.67,20.57,20.57,0,0,1,3.75-1.22c2.66-.53,13.21-3.4,16-5l1.23-.73c4.57-2.72,9.76-5.79,12.94-9.19,2.18-2.33,3.28-4.72,4.8-8,.6-1.32,1.24-2.69,2-4.12a35.25,35.25,0,0,1,1.85-3.17,12.09,12.09,0,0,0,1.41-2.65,16.6,16.6,0,0,0,.86-5.09c0-2.49,0-5,0-7.48,0-2.68,0-5.36,0-8s-2.11-5.85-5.29-8.21l-.42-.16a15.12,15.12,0,0,1-3.29-1.55l-1.25-.71c-6.91-3.93-11-6.67-12.88-9.88L417,396.85a2.68,2.68,0,0,0-.39-.55c.8.85,3.44,2.54,7.83,5,.91.52,1.61.92,1.94,1.14,0-.05.16,0,.35.09a14.81,14.81,0,0,1,3.77,1.88c7.17,5.16,11.52,12.67,11.63,20.1,0,2.78,0,5.56,0,8.34,0,2.41,0,4.83,0,7.24a31.22,31.22,0,0,1-1.45,9.35,24.24,24.24,0,0,1-3.09,6.39,20.48,20.48,0,0,0-1.17,2c-.64,1.26-1.19,2.46-1.72,3.62-1.77,3.86-3.61,7.86-7.43,11.93-4.61,4.93-10.75,8.57-16.17,11.79l-1.21.72c-5.4,3.21-17.63,6.13-20.42,6.77-.36.12-.91.33-1.57.59C384.38,494.62,381.12,495.87,378.16,495.87Zm11.35-3.2-.56.13C389.09,492.77,389.28,492.74,389.51,492.67Z" transform="translate(-1.19 -70.98)"/><path class="cls-2" d="M51.59,488.27a8,8,0,0,1-5.93-2.83c-4.32-5.05-2.45-18.69-2.43-18.82A56.8,56.8,0,0,1,48.11,450a33.05,33.05,0,0,1,3.26-5,23.3,23.3,0,0,0,1.84-2.69,22.07,22.07,0,0,1,6.07-7.19c.54-.46,1.13-.95,1.76-1.55A43.24,43.24,0,0,1,67,429.05q.83-.54,1.68-1.14c.45-.32,11-7.7,15.41-9a23.32,23.32,0,0,1,4.32-.77,9,9,0,0,0,1.82-.3,5.31,5.31,0,0,0,2.39-2.12,41.27,41.27,0,0,1,3.28-3.92c.62-.68,1.26-1.36,1.84-2.1,5.5-7,13.81-17.62,27.48-19.95l2.47,14.52c-7.46,1.26-12.73,7.32-18.37,14.51-.82,1.05-1.69,2-2.57,3a29.84,29.84,0,0,0-2.15,2.52,19.77,19.77,0,0,1-8.6,7.11,20,20,0,0,1-6,1.39,13.18,13.18,0,0,0-1.74.26A112.88,112.88,0,0,0,77.1,440c-.65.46-1.28.88-1.9,1.3a30.58,30.58,0,0,0-4,3c-.86.82-1.67,1.51-2.43,2.14a8.09,8.09,0,0,0-2.49,2.71,32.59,32.59,0,0,1-3.13,4.75,22,22,0,0,0-1.91,2.83,41.57,41.57,0,0,0-3.43,12,44.11,44.11,0,0,0,.07,9,6.46,6.46,0,0,0-6-4.11Z" transform="translate(-1.19 -70.98)"/><path class="cls-2" d="M298.56,458.4c-1.95,0-3.82-.14-5.56-.27-.91-.06-1.82-.13-2.72-.17-.57,0-1.15,0-1.73-.06-1.26,0-2.52-.06-3.74-.18a18.61,18.61,0,0,1-5.38-1.38c-.4-.15-.82-.32-1.31-.46-1.43-.42-2.81-.91-4.19-1.4a36,36,0,0,0-4.44-1.4,19.91,19.91,0,0,1-3.6-1.19l-.6-.25-2.27,0-.65-.12a9.3,9.3,0,0,1-3.65-1.45l-1,0a26,26,0,0,1-5.76-.73,14.32,14.32,0,0,1-2.44-.92l-.13-.06c-.7-.06-1.4-.07-2.1-.09s-1.14,0-1.7-.06a30.2,30.2,0,0,0-8.32.36c-5.8,1.26-10.6-.21-14.54-1.83l-.56-.23a17.89,17.89,0,0,1-6.67-4.08,21.46,21.46,0,0,1-3.86,3.11c-4.18,2.78-12.39,7.1-20.49,4.73-3.32-1-7.86-3.47-10.65-9.83-.73-1.66-1.26-3.31-1.78-4.9a33.34,33.34,0,0,0-1.48-4,8.74,8.74,0,0,0-.55-1c-.35-.57-.69-1.14-1-1.74a16,16,0,0,1-1.06-2.68c-.07-.23-.14-.46-.23-.68a3.84,3.84,0,0,0,1,1.2l9.74-11a12.69,12.69,0,0,1,3.55,6c.07.21.12.41.2.59s.24.4.41.67c.44.72.86,1.44,1.25,2.24a45.39,45.39,0,0,1,2.22,5.89c.43,1.31.83,2.54,1.26,3.52.62,1.42,1.14,1.57,1.3,1.62,1.35.4,4.61-.46,8.2-2.85a7.5,7.5,0,0,0,2.37-2.16l.43-.56c1.29-1.73,5.22-7,12.8-4.61a9.4,9.4,0,0,1,6.49,5.58c.41.63.41.63,2.15,1.34l.62.25c2.69,1.11,4.26,1.4,5.78,1.06a43.45,43.45,0,0,1,12.15-.68l1.4,0c1.16,0,2.33.06,3.47.17a13.93,13.93,0,0,1,4.64,1.36l.14.07a18.75,18.75,0,0,0,2.46.2,26.61,26.61,0,0,1,5.65.7l3.57,1a19.23,19.23,0,0,1,3.89,1.24c.38.15.91.37,1.09.41a48.36,48.36,0,0,1,6.34,1.93c1.08.39,2.15.79,3.27,1.11a25.84,25.84,0,0,1,2.59.9,5.23,5.23,0,0,0,1.39.44c.9.08,1.82.1,2.74.12.7,0,1.39,0,2.08.07,1,0,2,.12,3.09.19a36.37,36.37,0,0,0,6.79.1c1.73-.23,3.56-.65,5.51-1.08,1.51-.34,3-.68,4.51-1a16.47,16.47,0,0,0,3.67-1.47,27.51,27.51,0,0,1,8.35-2.87l2,14.58a15.22,15.22,0,0,0-4,1.54A28.41,28.41,0,0,1,313.5,456c-1.3.23-2.6.53-3.91.82-2.17.49-4.41,1-6.78,1.31A32.42,32.42,0,0,1,298.56,458.4Zm-48.87-10h0Z" transform="translate(-1.19 -70.98)"/></svg>