<svg xmlns="http://www.w3.org/2000/svg" viewBox="0 0 1022.1 971.96"><defs><style>.cls-1,.cls-11{fill:#fff;}.cls-10,.cls-2{fill:#e63a48;}.cls-11,.cls-2,.cls-3{stroke:#323a3d;}.cls-11,.cls-2,.cls-3,.cls-4,.cls-7,.cls-8{stroke-miterlimit:10;}.cls-11,.cls-2,.cls-3,.cls-4,.cls-8{stroke-width:9px;}.cls-3,.cls-6{fill:#1c3557;}.cls-12,.cls-4{fill:#ffc959;}.cls-4{stroke:#fcb431;}.cls-5,.cls-7,.cls-8{fill:#5599d3;}.cls-7,.cls-8{stroke:#1c3557;}.cls-7{stroke-width:8px;}.cls-9{fill:#fcb42e;}.cls-13{fill:#fcb431;}</style></defs><title>d20newNEW</title><g id="chest"><polygon class="cls-1" points="115.61 82.23 111.36 449.25 772.5 369.57 772.5 26.23 115.61 82.23"/><path class="cls-2" d="M90.65,103,30.38,154.82A64.26,64.26,0,0,0,8,203.56V355.89a106.15,106.15,0,0,0,25.42,68.92L89.5,490.49a5.66,5.66,0,0,0,10-3.67L100,107.35A5.66,5.66,0,0,0,90.65,103Z" transform="translate(-3.5 -32.77)"/><polygon class="cls-3" points="99.17 101.12 787.98 38.74 787.98 6.7 99.17 65.83 99.17 101.12"/><polygon class="cls-3" points="99.17 469.06 787.98 383.47 787.98 351.43 99.17 433.77 99.17 469.06"/><polygon class="cls-3" points="101.17 469.06 132.06 464.56 132.06 62.9 100.17 65.83 101.17 469.06"/><polygon class="cls-3" points="755.1 389.02 787.98 384.51 787.98 5.07 755.1 9 755.1 389.02"/><path class="cls-4" d="M119,495s-4-24,22-34,45-7,62-18,31-29,48-28,35,19,35,23c0,0-22-25,7-30s57-18,75,0,349-23,349-23,45-2,50,29-8,47-8,47,15-28,14-46c0,0,25-12,48-5s21,25,38,25,31-11,43-8,35,40,35,40,20-10,40-6,42,53,42,53L358,597Z" transform="translate(-3.5 -32.77)"/><path class="cls-5" d="M560.33,520.63l15.33-46.71a2.55,2.55,0,0,0-2.42-3.34H404.63a2.55,2.55,0,0,0-.74,5l153.28,46.71A2.55,2.55,0,0,0,560.33,520.63Z" transform="translate(-3.5 -32.77)"/><path class="cls-6" d="M559.95,520.51l1.36-4.21c.88-2.75,2.14-6.79,3.65-12l1.17-4.09,1.22-4.51c.86-3.13,1.75-6.54,2.68-10.18l3-11.6.2-.77c0-.17,0,.12,0,.05l0-.1a.87.87,0,0,0,0-.16s0,.17-.06.15a.19.19,0,0,0-.07.08s0,.08,0,.14,0,.05.07.05l-.82,0c-2.21.14-4.47.24-6.78.33-9.24.38-19.24.51-29.82.32s-21.74-.8-33.29-1.39-23.47-1-35.59-.91-24.43.4-36.75,1l-18.45.81-4.59.16-2.29.08h0l-.28,0-.14,0c-.08,0,.05,0,.07,0a.76.76,0,0,0,.26,0c.15-.05.17,0,.25-.1s.12-.1.19-.12.18-.18.2-.28,0-.16.06-.27a1,1,0,0,0-.12-.39,1.14,1.14,0,0,0-.32-.35c-.07,0-.07-.07-.12-.07l.06,0,.14,0,.27.08,1.1.31,2.19.61c11.67,3.3,23.14,6.56,34.23,9.78s21.77,6.44,31.85,9.66,19.6,6.29,28.28,9.49,16.61,6.2,23.65,8.86c3.51,1.34,6.81,2.57,9.87,3.67s5.86,2.13,8.41,3c5.1,1.75,9.12,3.06,11.88,3.93a2.24,2.24,0,0,0,2.62-.41A2.14,2.14,0,0,0,559.95,520.51Zm.76.25-.12.31a3,3,0,0,1-.54.81,2.94,2.94,0,0,1-1.36.82,2.88,2.88,0,0,1-1,.1,3.29,3.29,0,0,1-.55-.1l-.53-.15c-2.77-.81-6.84-2-12-3.36-2.6-.69-5.5-1.43-8.66-2.2s-6.57-1.61-10.24-2.46c-7.32-1.72-15.61-3.57-24.57-5.84s-18.6-5-28.77-7.9-20.84-6.21-31.83-9.75-22.34-7.2-33.87-11l-2.16-.71-1.08-.36-.62-.21a6.62,6.62,0,0,1-1.15-.53,5.84,5.84,0,0,1-2.83-4.42,5.9,5.9,0,0,1,2.66-5.63,6.28,6.28,0,0,1,1.27-.59,7.56,7.56,0,0,1,.81-.2l.35-.05H404l.29,0h.58l2.29.08,4.59.16,18.45.81c12.31.57,24.63,1,36.75,1s24-.34,35.59-.91,22.7-1.22,33.29-1.39,20.59-.07,29.82.32c2.31.1,4.57.2,6.78.33l.83,0a5.44,5.44,0,0,1,1.68.32,5.25,5.25,0,0,1,2.6,2.06,5.16,5.16,0,0,1,.84,3.11,5.24,5.24,0,0,1-.14.94c0,.14,0,.15-.07.23l0,.09s-.1.35-.08.24l-.29.74-4.47,11.11c-1.41,3.49-2.71,6.76-3.87,9.79l-1.69,4.36-1.48,4c-1.85,5.06-3.23,9.06-4.15,11.8Z" transform="translate(-3.5 -32.77)"/><path class="cls-5" d="M703.79,400.22l-126.58,70.1a1.35,1.35,0,0,0-.63.76L561,518.56a1.35,1.35,0,0,0,2.14,1.46L705.31,402.44A1.35,1.35,0,0,0,703.79,400.22Z" transform="translate(-3.5 -32.77)"/><path class="cls-6" d="M704,400.57l-3.8,2.12c-2.48,1.39-6.09,3.46-10.64,6.19L686,411.06l-3.9,2.44c-2.72,1.69-5.64,3.55-8.74,5.55l-9.91,6.38c-3.51,2.2-7.18,4.57-11.07,6.93-7.76,4.74-16.31,9.62-25.51,14.49s-19.1,9.66-29.32,14.65c-5.1,2.51-10.29,5.06-15.47,7.77l-3.91,2-.31.17h0s0,0,0,0l-.09.26-.18.52-.72,2.09c-.94,2.8-1.9,5.61-2.8,8.46-3.72,11.33-7.11,23-10.35,34.65l-.31,1.09-.15.55s-.08.27,0,0l0,.14c0,.19,0,0,0-.18a1,1,0,0,0-.29-.81,1,1,0,0,0-.76-.29,1.12,1.12,0,0,0-.45.13l-.08,0s-.05,0,0,0l.21-.19.84-.76,1.68-1.52,6.73-6.09,6.76-6,6.77-5.89c9-7.79,17.93-15.44,26.59-22.8s17.09-14.38,25.2-20.91,15.8-12.67,23.14-18.06,14.11-10.26,20.11-14.59c3-2.16,5.81-4.19,8.37-6.1s4.93-3.65,7-5.27c4.21-3.23,7.46-5.82,9.67-7.61a1,1,0,0,0,0-1.83A.94.94,0,0,0,704,400.57Zm-.39-.7.32-.14a1.72,1.72,0,0,1,1.07,0,1.85,1.85,0,0,1,1.17,1.23,1.71,1.71,0,0,1-.07,1.14,2.42,2.42,0,0,1-.77.91c-2.17,1.83-5.33,4.55-9.29,8.07-2,1.76-4.15,3.74-6.49,5.92s-4.88,4.53-7.56,7.08c-5.38,5.08-11.38,10.89-18.1,17s-14.15,12.59-22.08,19.34-16.39,13.74-25.26,20.84-18,14.43-27.38,21.84l-7.06,5.55-7.16,5.51-7.24,5.47L565.88,521l-.91.68-.23.17-.22.16-.32.21a3.71,3.71,0,0,1-5.56-3.31,3.48,3.48,0,0,1,.11-.74l0-.14a1.85,1.85,0,0,1,.1-.32l.2-.53.4-1.06c4.31-11.33,8.47-22.72,12.19-34,1-2.82,1.86-5.65,2.76-8.47l.66-2.11.16-.53.08-.26a2.72,2.72,0,0,1,.2-.48,2.65,2.65,0,0,1,.69-.82,5.49,5.49,0,0,1,.63-.4l3.79-2.24c5-3,10-6,14.79-9,9.65-6,18.95-11.89,28-17.08s17.69-9.87,25.82-13.94c4.06-2,8-3.89,11.74-5.7l10.67-5c3.35-1.57,6.48-3.05,9.35-4.46l4.14-2,3.74-1.88c4.72-2.41,8.4-4.37,10.89-5.73Z" transform="translate(-3.5 -32.77)"/><path class="cls-5" d="M672,208.69l42.36,175.51a1,1,0,0,1-1.86.67L647.92,251.72a1,1,0,0,1,0-.9l22.19-42.36A1,1,0,0,1,672,208.69Z" transform="translate(-3.5 -32.77)"/><path class="cls-6" d="M672.37,208.59l1,4.17c.67,2.72,1.7,6.7,3.1,11.74l1.13,4,1.3,4.35c.89,3,1.9,6.29,3,9.77l3.48,11.1c1.18,3.92,2.47,8,3.7,12.34,2.48,8.63,4.88,18,7.1,28.07s4.17,20.71,6.24,31.74,4.38,22.39,7.23,33.81l2.15,8.59,2.28,8.62,1.2,4.31.6,2.16.08.27,0,.13.06.3a2.82,2.82,0,0,1,0,.75,2.69,2.69,0,0,1-.22.79,2.81,2.81,0,0,1-2.43,1.63,2.84,2.84,0,0,1-1.55-.39,2.93,2.93,0,0,1-1.06-1.14l-.54-1-1.07-2-2.13-3.95L698.55,363l-4.17-7.88-4.07-7.87c-5.36-10.48-10.61-20.81-15.64-30.83s-9.78-19.76-14.14-29.06-8.44-18.12-11.88-26.42c-.88-2.06-1.74-4.09-2.54-6.08l-.61-1.48-.15-.37-.08-.18a3.66,3.66,0,0,1-.15-.44,3.81,3.81,0,0,1,.33-2.89l.1-.17,1.62-2.66,6.1-9.91c1.92-3.11,3.69-6,5.3-8.75s3.1-5.21,4.4-7.48c2.6-4.55,4.57-8.15,5.9-10.62l.87-1.63c.06-.12.08-.13.12-.2a1.7,1.7,0,0,1,.2-.22,1.34,1.34,0,0,1,.43-.26,1.42,1.42,0,0,1,.84-.05,1.37,1.37,0,0,1,.9.68A1.6,1.6,0,0,1,672.37,208.59Zm-.78.19a.59.59,0,0,0-1.1-.1l-.85,1.65c-1.27,2.5-3.11,6.17-5.37,10.9q-1.69,3.54-3.64,7.87c-1.32,2.87-2.71,6-4.17,9.33l-4.67,10.66-1.26,2.84-.08.18a1.47,1.47,0,0,0,.13-.27,1.85,1.85,0,0,0,0-1.08,1.69,1.69,0,0,0-.09-.25c0,.07,0,0,0,0l.2.35.79,1.39c1.07,1.87,2.13,3.79,3.2,5.76,4.39,7.84,8.76,16.51,13.38,25.69s9.33,18.94,14.06,29.1,9.61,20.67,14.52,31.37l3.66,8.07,3.6,8.16L711,376.86l1.78,4.12.89,2.06.44,1a.91.91,0,0,0-.81-.42.76.76,0,0,0-.64.48.83.83,0,0,0-.06.26c0,.14,0,.39,0,.19,0,0,0-.25,0,0l0-.14-.06-.27-.45-2.19-.9-4.38-1.9-8.71-2-8.63c-2.67-11.46-5.81-22.62-9-33.38s-6.36-21.14-8.93-31.09-4.76-19.42-6.49-28.22c-.88-4.4-1.6-8.65-2.34-12.67l-2-11.47c-.61-3.6-1.2-7-1.79-10.07l-.82-4.46-.81-4.05c-1.05-5.13-2-9.14-2.6-11.87Z" transform="translate(-3.5 -32.77)"/><path class="cls-5" d="M516.7,145.81l152.11,59.32a2.44,2.44,0,0,1,1.28,3.41l-21,40.18a2.44,2.44,0,0,1-3.64.81L514.34,150A2.44,2.44,0,0,1,516.7,145.81Z" transform="translate(-3.5 -32.77)"/><path class="cls-6" d="M516.85,145.43l4.07,1.57c2.66,1,6.57,2.47,11.58,4.24l4,1.37,4.38,1.44c3,1,6.34,2.07,9.88,3.18L562,160.79c3.95,1.3,8.12,2.61,12.43,4.09,8.62,3,17.86,6.42,27.51,10.39s19.68,8.54,30.08,13.21,21.2,9.34,32.37,13.6l4.2,1.6.53.2.13.05.19.08a2.79,2.79,0,0,1,.33.16,3.68,3.68,0,0,1,1.27,1.18,3.77,3.77,0,0,1,.41,3.29,12.57,12.57,0,0,1-.55,1.19l-.5,1-1,2-2,4.06-3.94,8.19-3.88,8.24-7.73,16.49-.06.13a2.39,2.39,0,0,1-.14.27l-.15.27a5.46,5.46,0,0,1-.91,1.1,5.51,5.51,0,0,1-2.2,1.25,5.57,5.57,0,0,1-4.87-.87l-3.7-2.61-7.3-5.26c-9.67-7-19.17-14-28.33-20.73S586.21,210,578,203.62s-16-12.52-22.92-18.44-13.24-11.42-18.84-16.28c-2.79-2.44-5.42-4.71-7.87-6.77s-4.69-4-6.75-5.66-3.9-3.18-5.52-4.45c-.82-.66-1.54-1.19-2.26-1.82a2.82,2.82,0,0,1-.85-2.57,3.05,3.05,0,0,1,1.13-1.82,2.63,2.63,0,0,1,1.48-.56A3.29,3.29,0,0,1,516.85,145.43Zm-.29.75a2.56,2.56,0,0,0-.92-.13,1.8,1.8,0,0,0-1,.41,2.2,2.2,0,0,0-.79,1.32,1.83,1.83,0,0,0,.63,1.73c.61.5,1.45,1.07,2.26,1.68,1.66,1.22,3.61,2.58,5.77,4.12s4.6,3.2,7.26,5,5.54,3.73,8.64,5.76c6.19,4.08,13.23,8.62,20.75,13.77s15.52,10.93,23.93,17.12,17.16,12.85,26.11,19.88,18.21,14.29,27.58,21.72l7,5.62,3.5,2.86a.72.72,0,0,0-.59,0,.62.62,0,0,0-.23.17s0,0,0,.06a.8.8,0,0,0-.12.19l.14-.21c-.14.25,0,0,0,0l.07-.12,9.15-15.74,4.57-7.88,4.49-7.9,4.28-7.77a1.12,1.12,0,0,0-.1-1,1.26,1.26,0,0,0-.35-.35.62.62,0,0,0-.17-.09l-.07,0-.13-.05-.52-.21-4.17-1.66c-11.1-4.43-22.22-8.3-33-11.9s-21.3-7-31.08-10.63-18.94-7.31-27.28-11c-4.18-1.82-8.13-3.68-11.92-5.4l-10.7-5c-3.36-1.58-6.5-3-9.43-4.35l-4.2-1.9L532,152.5c-4.88-2.1-8.75-3.67-11.39-4.72Z" transform="translate(-3.5 -32.77)"/><path class="cls-5" d="M354,276.29l69.18,27.29a4.08,4.08,0,0,0,5.23-2.14l64.47-144.94a4.08,4.08,0,0,0-6.42-4.72L352.77,269.43A4.08,4.08,0,0,0,354,276.29Z" transform="translate(-3.5 -32.77)"/><path class="cls-6" d="M354.11,275.92l4.57,1.78c3,1.16,7.37,2.82,13,4.84l4.45,1.58,4.9,1.67c3.4,1.17,7.1,2.4,11.06,3.7l12.61,4.14c4.42,1.5,9.09,3,13.92,4.74l3.65,1.3,1.85.67c.6.2.36.09.54.1a.59.59,0,0,0,.45-.35l1.45-3.37c2.18-5.07,4.53-10.27,7-15.59,4.92-10.65,10.53-21.69,16.26-33.14s11.49-23.36,16.86-35.67,10.64-24.91,15.66-37.61l7.57-19,.12-.3c.11-.27-.07.2,0,.1l0-.15.09-.3,0-.15s0-.12,0-.1-.07,0-.06.06a.22.22,0,0,1,0-.12,1,1,0,0,0-.3-.46,1.05,1.05,0,0,0-.57-.26.57.57,0,0,0-.39.1s-.06,0-.1.07a.39.39,0,0,1-.12.11l-.89.81-1.86,1.71-3.72,3.42L453,186.77c-9.48,8.59-18.77,16.76-27.66,24.41S408,226,400,232.39s-15.45,12.14-22,17.27c-3.29,2.56-6.36,5-9.16,7.22s-5.4,4.32-7.7,6.22-4.36,3.6-6.12,5.11l-1.28,1.08-.58.49a4.4,4.4,0,0,0-.5.52,3.42,3.42,0,0,0-.78,2.17,3.64,3.64,0,0,0,1.32,2.87A4.38,4.38,0,0,0,354.11,275.92Zm-.29.74-.31-.15a4.11,4.11,0,0,1-.87-.54,4.54,4.54,0,0,1-.74-6.29,5.25,5.25,0,0,1,.53-.59l.6-.55,1.24-1.13c1.72-1.56,3.66-3.38,5.84-5.42s4.57-4.33,7.14-6.85,5.37-5.23,8.32-8.17c5.92-5.86,12.53-12.55,19.92-19.64s15.56-14.6,24.26-22.46,18-16,27.72-24.34l30-25.6,3.86-3.25,1.93-1.63,1-.85c.29-.22.59-.44.9-.64a9.54,9.54,0,0,1,1-.51,7.18,7.18,0,0,1,4.57-.3,7.46,7.46,0,0,1,3.71,2.32,7.12,7.12,0,0,1,1.73,4.1,10.81,10.81,0,0,1,0,1.16,11,11,0,0,1-.25,1.32,1.25,1.25,0,0,1-.07.21l-.06.15-.11.3-.06.15s-.23.56-.16.39l-.14.29-9,18.35c-6.06,12.24-12,24.54-17.44,36.82s-10.52,24.49-15.2,36.41S444.6,273.19,440,284c-2.3,5.39-4.59,10.62-6.89,15.63l-.86,1.87-.43.93-.22.46a9.07,9.07,0,0,1-.44.83,7.56,7.56,0,0,1-6.2,3.6,7.29,7.29,0,0,1-1.86-.18l-.54-.14-.18-.06-.12,0-.39-.15-.23-.1-1.81-.78-3.56-1.54c-4.69-2-9.15-4.12-13.4-6l-12-5.59c-3.78-1.76-7.32-3.39-10.61-4.85l-4.72-2.13-4.32-1.89c-5.49-2.36-9.83-4.14-12.8-5.33Z" transform="translate(-3.5 -32.77)"/><path class="cls-5" d="M390.84,456.63l35.31-149a3.15,3.15,0,0,0-1.91-3.65L353.15,276a3.15,3.15,0,0,0-4.24,3.55l35.79,177A3.15,3.15,0,0,0,390.84,456.63Z" transform="translate(-3.5 -32.77)"/><path class="cls-6" d="M390.45,456.54l1.1-4.7c.71-3.07,1.71-7.58,2.89-13.34l.91-4.55.93-5c.66-3.48,1.34-7.26,2-11.3l2.25-12.87c.84-4.52,1.66-9.29,2.65-14.23,2-9.89,4.35-20.54,7.2-31.73s6.25-22.9,9.72-35l2.58-9.17c.43-1.54.87-3.09,1.28-4.64l.62-2.34.08-.29,0-.22a2.44,2.44,0,0,0,0-.26,1.74,1.74,0,0,0-1.08-1.59l-2.25-1-4.54-1.86c-3-1.22-6.09-2.46-9.18-3.64-12.3-4.85-24.95-9.41-37.65-13.81l-9.52-3.32L355.8,280l-2.37-.83-1.19-.41-.15-.05c.34.12,0,0,0,0l-.3-.08c0,.06.22.07.16.08s-.08.2,0,.13h0l.13.57.29,1.22.57,2.43,2.19,9.71c2.86,12.91,5.66,25.63,8.3,37.94s5.09,24.24,7.24,35.59,4.15,22.08,5.63,32.06,2.76,19.15,3.9,27.27c.56,4.06,1.11,7.86,1.65,11.36s1,6.73,1.51,9.63.93,5.49,1.35,7.73a12.92,12.92,0,0,0,.69,2.92,2.59,2.59,0,0,0,1.77,1.25,2.89,2.89,0,0,0,1.77-.22,2.8,2.8,0,0,0,1-.83A3.65,3.65,0,0,0,390.45,456.54Zm.78.18-.11.33a3.49,3.49,0,0,1-.45.93,3.63,3.63,0,0,1-1.29,1.12,3.74,3.74,0,0,1-2.3.32,3.59,3.59,0,0,1-2.42-1.65,3.7,3.7,0,0,1-.34-.78c0-.14-.07-.2-.12-.41l-.08-.38-.36-1.61c-.49-2.23-1.09-4.79-1.76-7.65s-1.46-6-2.34-9.46-1.83-7.15-2.89-11.11c-2.1-7.93-4.57-16.85-7-26.64s-4.83-20.44-7.27-31.73-4.84-23.22-7.15-35.6-4.71-25.18-7.09-38.19l-1.75-9.8L346.1,282l-.21-1.23-.11-.66a6.46,6.46,0,0,1-.09-1.24,6.19,6.19,0,0,1,7.93-5.82l.3.11.34.12.14.06,1.15.51,2.3,1,4.6,2,9.22,4.07c12.29,5.46,24.64,10.76,36.94,15.62,3.06,1.25,6.14,2.42,9.19,3.61l4.58,1.74,2.29.84a4.55,4.55,0,0,1,2.54,2.27,4.61,4.61,0,0,1,.46,1.7,4.67,4.67,0,0,1,0,1l-.06.37-.06.3-.5,2.37c-.34,1.57-.63,3.15-.94,4.72l-1.81,9.36c-2.34,12.39-4.53,24.38-7,35.66s-5.12,21.87-7.81,31.59c-1.34,4.86-2.74,9.49-4,13.91l-3.77,12.51c-1.19,3.93-2.28,7.6-3.25,11l-1.41,4.9-1.23,4.48c-1.53,5.68-2.66,10.16-3.4,13.22Z" transform="translate(-3.5 -32.77)"/><path class="cls-7" d="M497.13,146.86l-65,146.24a6.41,6.41,0,0,0,7.38,8.84L634.6,254.45A6.41,6.41,0,0,0,637,243.11L506.87,144.35A6.41,6.41,0,0,0,497.13,146.86Z" transform="translate(-3.5 -32.77)"/><path class="cls-8" d="M580.51,458.95l63.3-195.64a7.07,7.07,0,0,0-8.4-9l-197.08,48a7.07,7.07,0,0,0-3.57,11.62L568.54,461.52A7.07,7.07,0,0,0,580.51,458.95Z" transform="translate(-3.5 -32.77)"/><path class="cls-7" d="M389.62,461.79l34-143.57a7.14,7.14,0,0,1,12.24-3.15l130,143.57a7.14,7.14,0,0,1-5.29,11.94H396.57A7.14,7.14,0,0,1,389.62,461.79Z" transform="translate(-3.5 -32.77)"/><path class="cls-7" d="M581.59,455.62,643,266a6.21,6.21,0,0,1,11.49-.8l59.5,122.72a6.21,6.21,0,0,1-2.58,8.14L590.5,463A6.21,6.21,0,0,1,581.59,455.62Z" transform="translate(-3.5 -32.77)"/><path class="cls-6" d="M511.74,383.52a41.08,41.08,0,0,1-1-6.66,24.22,24.22,0,0,1,.56-7,24.74,24.74,0,0,1,3-7.33,34,34,0,0,1,6.47-7.55q2.28-2.06,4.8-4.13a36.74,36.74,0,0,0,4.51-4.36,17.33,17.33,0,0,0,3-4.8,8.6,8.6,0,0,0,.34-5.37,9.13,9.13,0,0,0-1.63-3.39,9.63,9.63,0,0,0-3-2.6,11.86,11.86,0,0,0-4.25-1.35,14.81,14.81,0,0,0-5.41.39,15.2,15.2,0,0,0-5.12,2.19,19.62,19.62,0,0,0-3.6,3.13A19.1,19.1,0,0,0,508,338a30.16,30.16,0,0,0-1.36,2.7L501.44,337q.41-.7,1.58-2.6a22.88,22.88,0,0,1,3.3-4,32.08,32.08,0,0,1,5.19-4.12,22.94,22.94,0,0,1,7.23-3,22.15,22.15,0,0,1,7.71-.59,16.67,16.67,0,0,1,6.31,2,14.58,14.58,0,0,1,7.13,9.37,13.82,13.82,0,0,1,0,7.16,19.61,19.61,0,0,1-2.84,5.92,29.18,29.18,0,0,1-4.26,4.8q-2.36,2.13-4.28,3.7a59.08,59.08,0,0,0-4.94,4.36,31.47,31.47,0,0,0-4.05,4.85,18.89,18.89,0,0,0-2.5,5.34,11.31,11.31,0,0,0-.08,5.86l32.22-7.74,1.42,5.91Z" transform="translate(-3.5 -32.77)"/><path class="cls-6" d="M598.64,333.13a38.32,38.32,0,0,1,1.06,12,30.19,30.19,0,0,1-2.55,10.29,22.4,22.4,0,0,1-5.75,7.73,20.76,20.76,0,0,1-18.1,4.35,22.36,22.36,0,0,1-8.64-4.27,30.12,30.12,0,0,1-7-8,41,41,0,0,1-5.56-23.15,30.15,30.15,0,0,1,2.56-10.29,22.93,22.93,0,0,1,5.74-7.78,20.35,20.35,0,0,1,18.1-4.35,23,23,0,0,1,8.65,4.32,30.18,30.18,0,0,1,6.95,8A38.34,38.34,0,0,1,598.64,333.13Zm-6.25,1.5a34.26,34.26,0,0,0-3.47-9,23.93,23.93,0,0,0-5.12-6.38,16.26,16.26,0,0,0-6.33-3.42,14,14,0,0,0-7.05-.07,14.17,14.17,0,0,0-6.34,3.29,16.23,16.23,0,0,0-4.08,5.92,24,24,0,0,0-1.67,8,37.33,37.33,0,0,0,4.49,18.68,23.92,23.92,0,0,0,5.12,6.38,15.71,15.71,0,0,0,6.32,3.37,14.47,14.47,0,0,0,7.13,0,14.28,14.28,0,0,0,6.26-3.22,15.73,15.73,0,0,0,4.09-5.87,23.92,23.92,0,0,0,1.67-8A34.29,34.29,0,0,0,592.39,334.63Z" transform="translate(-3.5 -32.77)"/><path class="cls-1" d="M638.85,253.25a12.26,12.26,0,0,0,5.73-10v-.06c0-2.11.09-4.2.16-6.25.24-8.2.61-15.86,1-22.42s.88-12,1.25-15.86c.18-1.91.37-3.42.47-4.44s.19,1.84.19,1.84.07-2.86.19-1.84.29,2.53.47,4.44c.38,3.83.84,9.3,1.25,15.86s.78,14.22,1,22.42c.07,2.05.12,4.14.16,6.25v.06a12,12,0,0,0,5.82,9.89h0a7.67,7.67,0,0,0,3.48,1.14l1.51.13c4.39.38,8.49.94,12,1.58s6.44,1.36,8.49,1.94c1,.28,1.83.57,2.38.73s.84.29.84.29-.29.11-.84.29-1.35.45-2.38.73c-2,.58-5,1.3-8.49,1.94s-7.61,1.2-12,1.58h0a11.37,11.37,0,0,0-5.93,2.31l-.85.67a9.68,9.68,0,0,0-3.78,7.53c0,2.85,0,5.69-.09,8.49q0,3.23-.12,6.4c0,2.11-.09,4.2-.16,6.25-.24,8.2-.6,15.86-1,22.42s-.88,12-1.26,15.86c-.18,1.91-.37,3.42-.48,4.44s-.19,1.57-.19,1.57-.07-.55-.19-1.57-.29-2.53-.48-4.44c-.38-3.83-.84-9.3-1.26-15.86s-.78-14.22-1-22.42c-.07-2.05-.11-4.14-.16-6.25s-.09-4.25-.12-6.4c0-2.89-.07-5.8-.09-8.73a9.35,9.35,0,0,0-3.49-7.18l-.85-.7a11.06,11.06,0,0,0-5.92-2.39h0c-4.39-.37-8.49-.94-12-1.58s-6.44-1.36-8.49-1.95c-1-.28-1.83-.57-2.38-.74s-.84-.3-.84-.3.29-.12.84-.3,1.35-.46,2.38-.74c2-.59,5-1.31,8.49-1.95s7.61-1.21,12-1.58c.54-.05,1.08-.1,1.63-.14a6.66,6.66,0,0,0,3.15-1Z" transform="translate(-3.5 -32.77)"/><path class="cls-6" d="M429.7,309.63c0-.32,0-.64,0-1s.09-1.05,0-.42a7.62,7.62,0,0,0-.37,1.42q-.24.19-.07,0l.24-.2a11.51,11.51,0,0,1,2.25-1.54c.24-.11.76-.07.91-.17s-.06,0-.2-.2a3.41,3.41,0,0,1-.45-1.31,4.35,4.35,0,0,1,.15-1.66,1.9,1.9,0,0,1,.3-.89l-.14.18q.22-.22,0,0l-.32.25-.78.57c-1.49,1.1-1.5,3.9-1.23,5.53.14.81,1,4.18,2.48,3.06a9.14,9.14,0,0,0,2.2-2A9.29,9.29,0,0,0,435.8,306c0-2.18-.48-6.9-3.44-7.12-1.56-.12-3.32,1.29-4.43,2.25-2.43,2.12-2.21,5.66-2.12,8.59,0,1.14.34,4.46,2.06,4.42s1.87-3.48,1.84-4.52Z" transform="translate(-3.5 -32.77)"/><path class="cls-6" d="M429.13,303.38c-1.71,1.39-1.93,3.61-2,5.68a7.45,7.45,0,0,0,.65,3.14c.21.43.76,1.36,1.41,1.27s1.11-.74,1.35-1.34A9.33,9.33,0,0,0,431,309a5.47,5.47,0,0,1-.26,2.16q-.19.54,0,.21l-.38.71a2.29,2.29,0,0,1,.25-.33l-.45.46a1.94,1.94,0,0,1,.22-.2,3.7,3.7,0,0,0,1.12-2.08,9.14,9.14,0,0,0,.11-3.45,5.24,5.24,0,0,0-1-2.65c-.37-.4-1-.86-1.51-.41Z" transform="translate(-3.5 -32.77)"/><path class="cls-6" d="M570,472.29c1.17.18,2.06,1.18,3.29,1.38a8.67,8.67,0,0,0,4.28-.45c2.8-1,4.73-3.5,6.75-5.57,1.75-1.79.46-10.34-2.16-7.67-1.78,1.82-3.61,4.14-6.23,4.69a6,6,0,0,1-3.51-.21,10.24,10.24,0,0,0-2.64-1.11c-2.38-.38-2.74,8.47.22,8.93Z" transform="translate(-3.5 -32.77)"/><path class="cls-9" d="M431,508l-2-.32c-1.28-.22-3.16-.47-5.54-.84s-5.28-.7-8.58-1.08-7-.66-11.08-.85a96.6,96.6,0,0,0-12.87.2c-1.12.11-2.24.24-3.36.4s-2.42.37-3.5.6c-2.29.45-4.73,1-7.14,1.57s-4.88,1.27-7.34,2-4.93,1.57-7.4,2.44c-4.43,1.58-11.68,4.65-9.81,4.4a.53.53,0,0,0,.12.38.46.46,0,0,0,.19.12l1.9.68c2.68,1,5.13,1.94,7.63,2.81s4.93,1.67,7.36,2.39,4.85,1.24,7.23,1.72a60.33,60.33,0,0,0,13.84,1c4.76-.3,9.11-.57,13.2-.94s7.82-.7,11.13-1.11,6.19-.79,8.56-1.18,4.24-.71,5.5-1S431,521,431,521s-.6.36-1.78.92-2.92,1.37-5.2,2.22S419,526,415.7,527s-7,2-11,2.88-8.58,1.75-13.22,2.51a59.15,59.15,0,0,1-15.81.18,86.77,86.77,0,0,1-16.19-3.72c-2.64-.85-5.3-1.77-7.78-2.66l-2-.69a9.45,9.45,0,0,1-1.42-17.17l.26-.14.11-.06.27-.13.5-.23c.66-.3,1.33-.61,2-.88,2.65-1.14,5.33-2.1,8-3a121.71,121.71,0,0,1,15.89-4c2.63-.47,5.18-.87,7.8-1.13,1.37-.15,2.45-.22,3.8-.31s2.56-.11,3.81-.09a82.28,82.28,0,0,1,13.72,1.39,112.52,112.52,0,0,1,11.16,2.65c3.27.91,6.07,1.9,8.35,2.72s4,1.58,5.25,2.07S431,508,431,508Z" transform="translate(-3.5 -32.77)"/><path class="cls-9" d="M345.22,515.34l.3,1.09c.18.71.47,1.75.78,3.08.63,2.66,1.42,6.46,2.18,11l.56,3.56,0,.23,0,.12v.09c0,.11,0-.12,0-.08l0,.23,0,.12s0,0,0,0,.1.17.16.25a2,2,0,0,0,.51.52,2.47,2.47,0,0,0,.68.33l.16,0,.49.16,1,.33c1.24.37,2.52.81,3.85,1.19s2.67.76,4,1.12,2.77.68,4.16,1c2.81.63,5.67,1.2,8.55,1.63s5.75.76,8.59,1,5.64.28,8.35.24l15.52-.38c2.27-.07,4.37-.13,6.22-.22s3.48-.17,4.82-.27,2.4-.19,3.12-.3,1.11-.18,1.11-.18a8,8,0,0,1-.93.66,26.82,26.82,0,0,1-2.82,1.56A64.88,64.88,0,0,1,406,547.43c-1.13.32-2.32.6-3.55.92s-2.5.56-3.82.85-2.7.52-4.07.76q-1,.18-2.07.34c-.73.1-1.34.23-2.17.32-1.51.18-3.05.37-4.61.42-.78,0-1.57.1-2.36.11H381a70.69,70.69,0,0,1-9.6-.83,78.56,78.56,0,0,1-9.35-2.08c-1.52-.44-3-.91-4.46-1.44s-2.88-1.05-4.25-1.65-2.72-1.19-4-1.85l-.92-.48-.46-.24c-.3-.15-.51-.26-.75-.41a8.44,8.44,0,0,1-4.11-6.62l0-.22v-.35s0-.23,0-.14v-.21l0-.23.25-3.6c.36-4.62.82-8.47,1.21-11.17.19-1.35.39-2.41.51-3.14Z" transform="translate(-3.5 -32.77)"/><path class="cls-9" d="M379.33,479.34l-2-.32c-1.28-.22-3.16-.47-5.54-.84s-5.28-.7-8.58-1.08-7-.66-11.08-.85a96.6,96.6,0,0,0-12.87.2c-1.12.11-2.24.24-3.36.4s-2.42.37-3.5.6c-2.29.45-4.73,1-7.14,1.57s-4.88,1.27-7.34,2-4.93,1.57-7.4,2.44c-4.43,1.58-11.68,4.65-9.81,4.4a.53.53,0,0,0,.12.38.46.46,0,0,0,.19.12l1.9.68c2.68,1,5.13,1.94,7.63,2.81s4.93,1.67,7.36,2.39,4.85,1.24,7.23,1.72A60.33,60.33,0,0,0,339,497c4.76-.3,9.11-.57,13.2-.94s7.82-.7,11.13-1.11,6.19-.79,8.56-1.18,4.24-.71,5.5-1,1.94-.43,1.94-.43-.6.36-1.78.92-2.92,1.37-5.2,2.22-5.07,1.86-8.33,2.81-7,2-11,2.88-8.58,1.75-13.22,2.51a59.15,59.15,0,0,1-15.81.18,86.77,86.77,0,0,1-16.19-3.72c-2.64-.85-5.3-1.77-7.78-2.66l-2-.69a9.45,9.45,0,0,1-1.42-17.17l.26-.14.11-.06.27-.13.5-.23c.66-.3,1.33-.61,2-.88,2.65-1.14,5.33-2.1,8-3a121.71,121.71,0,0,1,15.89-4c2.63-.47,5.18-.87,7.8-1.13,1.37-.15,2.45-.22,3.8-.31s2.56-.11,3.81-.09a82.28,82.28,0,0,1,13.72,1.39,112.52,112.52,0,0,1,11.16,2.65c3.27.91,6.07,1.9,8.35,2.72s4,1.58,5.25,2.07S379.33,479.34,379.33,479.34Z" transform="translate(-3.5 -32.77)"/><path class="cls-9" d="M293.55,486.68l.3.91c.17.59.46,1.46.75,2.57.61,2.22,1.37,5.39,2.1,9.2.36,1.91.72,4,1,6.16l0,.21,0,.1v.05c0-.24,0-.05,0-.1v0l0,.21,0,.1s0,0,0,0,.07.08.12.14a1.47,1.47,0,0,0,.37.37,2.58,2.58,0,0,0,.48.26c.21.08.21,0,.94.3l3.32,1.09,3.43,1c2.31.67,4.66,1.34,7,1.9s4.75,1.1,7.09,1.59,4.67.88,6.94,1.18c1.13.2,2.25.29,3.34.44s2.17.22,3.22.34,2.08.17,3.07.24l.74.06.37,0h.28l1.48,0c3.88.12,7.13.39,9.42.64,1.14.12,2,.27,2.66.35l.94.15-.88.36c-.58.21-1.42.56-2.51.94-2.17.76-5.27,1.75-9,2.74l-1.44.37-1.65.31c-1.07.2-2.18.39-3.33.51s-2.34.26-3.55.32-2.46.11-3.72.09c-.63,0-1.27,0-1.91,0l-1.93-.12c-1.3-.05-2.6-.22-3.92-.38a70.22,70.22,0,0,1-15.5-3.84c-1.24-.44-2.45-.94-3.63-1.46s-2.43-1.08-3.47-1.62a14,14,0,0,1-2.23-1.31,8.77,8.77,0,0,1-2-2.17,8.76,8.76,0,0,1-1.43-4.17v-.54c0-.06,0,.11,0-.15v-.36c.14-2.21.32-4.3.51-6.23.39-3.86.88-7.09,1.29-9.35.2-1.13.41-2,.53-2.63Z" transform="translate(-3.5 -32.77)"/><path class="cls-9" d="M852.8,476.11s.53-.31,1.57-.84,2.55-1.31,4.53-2.17,4.4-1.92,7.26-2.92a97.76,97.76,0,0,1,9.77-3,72.44,72.44,0,0,1,12.15-2c1.11-.08,2.25-.12,3.41-.13s2.17,0,3.41.07c2.35.09,4.65.31,7,.59a106.82,106.82,0,0,1,14.36,2.74c2.42.64,4.85,1.35,7.28,2.24.61.21,1.22.46,1.82.69l.46.18.37.16.24.11A8.89,8.89,0,0,1,926,488l-1.73.71c-2.15.91-4.48,1.85-6.78,2.74a76.77,76.77,0,0,1-14.27,4.09,52.62,52.62,0,0,1-14.15.57c-4.15-.47-8.21-1-11.86-1.66s-7-1.37-9.93-2.11-5.46-1.5-7.52-2.17-3.64-1.34-4.71-1.78-1.61-.75-1.61-.75.61.11,1.75.26,2.82.32,4.94.54,4.72.34,7.67.53,6.3.24,9.93.33,7.51.08,11.75.09a53.84,53.84,0,0,0,12.12-1.62c2.07-.55,4.17-1.17,6.28-1.9s4.22-1.6,6.38-2.49,4.28-1.89,6.62-2.88l1.65-.7s0,0,0,0,0,.07-.05,0,0,0,.06,0,0,0,.14.06l-.17-.08-.1,0,.11,0,0,0-.4-.16c-.53-.21-1-.43-1.59-.62-2.15-.79-4.34-1.55-6.55-2.2s-4.44-1.25-6.65-1.81-4.42-1-6.59-1.45-4.34-.77-6.38-1.07c-1-.15-2.19-.27-3.12-.37s-2-.15-3-.2a86.7,86.7,0,0,0-11.39.37c-3.57.33-6.87.75-9.79,1.2s-5.48.9-7.58,1.29l-4.89.95Z" transform="translate(-3.5 -32.77)"/><path class="cls-9" d="M929.3,478.35l.27,1c.15.64.42,1.57.68,2.76.54,2.38,1.21,5.77,1.82,9.85l.45,3.18,0,.21v.18c0-.09,0,.15,0,.14l0,.21v.31a8.05,8.05,0,0,1-.17,1.51,8,8,0,0,1-3.28,4.88c-.22.16-.4.26-.68.43l-.39.24-.79.48c-1.15.68-2.31,1.28-3.51,1.88s-2.43,1.17-3.7,1.71-2.57,1.06-3.9,1.52a68.65,68.65,0,0,1-8.24,2.34,62,62,0,0,1-8.53,1.21l-2.13.13c-.71,0-1.41,0-2.11,0-1.4,0-2.79-.07-4.14-.17-.75,0-1.3-.13-2-.19l-1.86-.21c-1.23-.16-2.47-.32-3.66-.51s-2.33-.39-3.44-.6-2.18-.44-3.2-.69A55.58,55.58,0,0,1,867.2,507a23.39,23.39,0,0,1-2.57-1.32,6.93,6.93,0,0,1-.85-.57s.35,0,1,.08,1.6,0,2.79,0,2.64,0,4.3-.09,3.51-.13,5.53-.21l13.77-.59c2.39-.12,4.85-.35,7.34-.67s5-.74,7.52-1.32,5-1.16,7.46-1.85l3.63-1.09c1.19-.38,2.37-.78,3.52-1.17s2.28-.83,3.35-1.21l.85-.33.43-.17.11,0a1.94,1.94,0,0,0,.49-.22,1.4,1.4,0,0,0,.38-.36s.1-.21.12-.15,0,0,0,0v-.1l0-.21s0,.2,0,.09v-.18l0-.21.37-3.19c.51-4.09,1.09-7.51,1.57-9.9.23-1.19.47-2.13.61-2.77Z" transform="translate(-3.5 -32.77)"/></g><g id="chest_front" data-name="chest front"><polygon class="cls-10" points="326.92 934.23 121.63 872.05 118.37 491.98 336.38 573.84 326.92 934.23"/><polygon class="cls-10" points="345.27 575.83 341.02 942.85 1002.16 863.17 1002.16 501.96 345.27 575.83"/><polygon class="cls-3" points="326.38 597.47 1015.18 511.88 1015.18 482.84 326.38 565.19 326.38 597.47"/><polygon class="cls-3" points="364.38 965.41 1015.18 879.82 1015.18 847.78 364.38 930.13 364.38 965.41"/><polygon class="cls-3" points="360.75 964.98 393.64 960.48 392.14 557.42 359.26 561.35 360.75 964.98"/><polygon class="cls-3" points="357.46 963.41 324.58 951.24 324.58 552.58 357.46 565.19 357.46 963.41"/><polygon class="cls-3" points="132.82 887.21 101.93 876.03 101.93 473.37 134.82 486.98 132.82 887.21"/><polygon class="cls-3" points="982.3 885.37 1015.18 880.87 1015.18 478.21 982.3 484.14 982.3 885.37"/><polygon class="cls-3" points="101.93 460.52 357.46 567.8 357.46 604.48 101.93 489.35 101.93 460.52"/><polygon class="cls-3" points="101.93 876.03 357.26 964.91 357.26 928.23 101.93 845.27 101.93 876.03"/><path class="cls-11" d="M899.63,529.93s0,73.3,119.06,67.42V512.22Z" transform="translate(-3.5 -32.77)"/><path class="cls-11" d="M479.93,580.24s-18.44,104.59-119.06,99.85V595Z" transform="translate(-3.5 -32.77)"/><path class="cls-11" d="M479.82,981.57s-18.44-93.69-119.06-89V997.88Z" transform="translate(-3.5 -32.77)"/><path class="cls-11" d="M899.63,928.39S918.07,814.26,1018.68,819v94.59Z" transform="translate(-3.5 -32.77)"/><path class="cls-11" d="M269.43,562.16s8,113.13,88.33,117.69V596Z" transform="translate(-3.5 -32.77)"/><path class="cls-11" d="M265.26,962.53s22.54-69.82,93.16-69.61V998.19Z" transform="translate(-3.5 -32.77)"/><path class="cls-11" d="M105.43,908.8V831.43S169.81,854.12,171.16,932Z" transform="translate(-3.5 -32.77)"/><path class="cls-11" d="M105.43,493.14,182.6,526.2S175.09,612,105.43,585Z" transform="translate(-3.5 -32.77)"/><polygon class="cls-12" points="544.5 469.24 591.17 465.56 598.83 492.75 550.5 496.23 544.5 469.24"/></g><g id="d20"><path class="cls-12" d="M759.15,518.78l-2.28,17.82a4.87,4.87,0,0,1-3.34,4c-6.33,2.15-18.93,7.46-35.69,4.6-21.81-3.72-23.29-7.23-23.29-7.23" transform="translate(-3.5 -32.77)"/><path class="cls-13" d="M759.15,518.78s.18,1.35.37,3.71c.09,1.18.19,2.6.25,4.23s.13,3.47.14,5.47c0,1,0,2,0,3.12v1.64l0,.56c0,.26-.1.58-.15.79a7.81,7.81,0,0,1-.46,1.35,8.23,8.23,0,0,1-4,4.1l-1.84.82c-.55.26-1.09.5-1.68.75a70.66,70.66,0,0,1-7.47,2.78A54.82,54.82,0,0,1,736,549.9a42.44,42.44,0,0,1-4.23.42l-2.12.1c-.71,0-1.41,0-2.11,0-1.4,0-2.79-.14-4.15-.26s-2.7-.33-4-.61-2.62-.55-3.74-.86-2.27-.62-3.41-1q-3.39-1-6.24-2.18a51.14,51.14,0,0,1-5.11-2.37c-.74-.39-1.43-.82-2.05-1.19s-1.19-.77-1.67-1.17a11,11,0,0,1-2.09-2,2.36,2.36,0,0,1-.49-.89,1,1,0,0,0,.2.15,4.62,4.62,0,0,0,.63.31,14,14,0,0,0,2.56.67c1.11.22,2.48.42,4.06.6.78.1,1.62.2,2.51.28s1.81.18,2.78.28l6.25.57,3.46.32c1.23.15,2.29.2,3.46.29a68.69,68.69,0,0,0,7.07.17c2.4,0,4.83-.28,7.26-.55s4.85-.73,7.24-1.26,4.75-1.12,7.11-1.73c.58-.16,1.2-.33,1.79-.47l.89-.22a6.45,6.45,0,0,1,.68-.16,1.86,1.86,0,0,0,1-.49,1.47,1.47,0,0,0,.18-.22c0-.06,0,0,.06,0a1.27,1.27,0,0,0,.05-.17l0-.1v-.05s0,.19,0,.09v0l.4-1.59q.38-1.57.78-3c.51-1.93,1-3.7,1.51-5.26s.92-2.92,1.31-4C758.63,520,759.15,518.78,759.15,518.78Z" transform="translate(-3.5 -32.77)"/><path class="cls-12" d="M561.95,501.25S578.5,479,600.5,479s18,4.5,29.5,3.5,17.5-5.5,29-3.5,35.5,24.5,42.5,25,16.5-3.5,31.5-3c7.81.26,18.26,4,22.65,7.61a7.23,7.23,0,0,1-1.1,12c-4.81,2.64-16,5.16-25.55,4.92-19.5-.5-29.5-5.31-29.5-5.31" transform="translate(-3.5 -32.77)"/><path class="cls-13" d="M561.95,501.25s.57-.95,1.81-2.61a65.28,65.28,0,0,1,5.87-6.85,59.61,59.61,0,0,1,11-9,46.49,46.49,0,0,1,7.94-4,38.86,38.86,0,0,1,9.79-2.36c.89-.05,1.79-.15,2.69-.17l2.55-.07c.84,0,1.77,0,2.67,0s1.83,0,2.75,0,1.86.07,2.81.17,1.91.17,2.89.32a41.61,41.61,0,0,1,5.9,1.26c1,.27,1.79.52,2.57.7a13.44,13.44,0,0,0,2.28.31,27.72,27.72,0,0,0,5.16-.33A83.43,83.43,0,0,0,642,476.08a42.68,42.68,0,0,1,13.64-1.75l1.8.13,1.78.23.44.06h.11l.19,0,.2,0c.21,0,.67.14,1,.23.67.18,1.3.36,1.9.58a43.58,43.58,0,0,1,6.53,3A127.45,127.45,0,0,1,681,485.91l10.74,7.61c1.77,1.24,3.53,2.46,5.27,3.55.87.55,1.73,1.06,2.56,1.51a12.74,12.74,0,0,0,2.12.94l.16,0h0l.41,0,.79,0,.57,0c.77,0,1.83-.12,2.8-.24,2-.25,4.12-.63,6.28-1A105.12,105.12,0,0,1,726,497c2.23-.11,4.45-.07,6.65,0l.41,0,.3,0,.2,0,.78.06c.48,0,1.18.13,1.76.19,1.19.16,2.27.36,3.38.59a54.68,54.68,0,0,1,12.3,4.25,31.55,31.55,0,0,1,5.68,3.47l.35.28.17.14.07.06.13.12.13.12.22.22c.14.14.3.3.41.43a10.61,10.61,0,0,1,1.25,1.71,10.51,10.51,0,0,1-.6,11.56,10.19,10.19,0,0,1-2.86,2.62c-.29.17-.5.3-.88.48l-.61.28-.68.29-.74.3a43.33,43.33,0,0,1-5.39,1.6c-1.75.41-3.47.74-5.16,1a69.09,69.09,0,0,1-9.75.83c-1.57,0-3.05,0-4.58-.14s-2.78-.25-4.15-.41a93.74,93.74,0,0,1-13.85-2.58,64.34,64.34,0,0,1-8.54-2.91,26.94,26.94,0,0,1-2.86-1.39s1,.38,3,.89a80.43,80.43,0,0,0,8.73,1.62,118.58,118.58,0,0,0,13.66.86c1.31,0,2.72,0,4.14,0s2.76-.12,4.19-.28a70.19,70.19,0,0,0,9-1.48,49.26,49.26,0,0,0,9.21-3l.48-.24c.15-.07.32-.15.53-.27l.59-.33.29-.2a4.25,4.25,0,0,0,1.06-1.13,4.07,4.07,0,0,0,.54-3,3.78,3.78,0,0,0-1.09-2c0-.05-.07-.05-.1-.08l0,0-.14-.11-.14-.12-.07-.06s.12.1,0,0l-.23-.16a25,25,0,0,0-4.49-2.41,51,51,0,0,0-10.76-3.18c-.92-.16-1.89-.29-2.75-.38-.45,0-.78-.09-1.35-.1l-.78,0h-.29c.17,0,0,0,0,0h-.37c-2,0-4,0-6,.2a103.35,103.35,0,0,0-12.24,1.7c-2.11.38-4.25.81-6.58,1.15-1.19.16-2.31.31-3.72.38l-1.07,0h-1.63l-.43,0a10,10,0,0,1-1.45-.28,20,20,0,0,1-3.92-1.63c-1.11-.59-2.13-1.19-3.13-1.81-2-1.23-3.85-2.5-5.68-3.78-3.68-2.54-7.19-5.17-10.73-7.65s-7.05-4.89-10.55-6.92a35.4,35.4,0,0,0-5.14-2.51c-.41-.15-.8-.28-1.17-.38-.15,0-.21-.07-.53-.13l-.2,0s-.16,0,0,0h-.09l-.35-.06-1.39-.23-1.38-.14a35.77,35.77,0,0,0-11.19,1.11,86.73,86.73,0,0,1-12.44,2.21,34.48,34.48,0,0,1-6.58,0,20.64,20.64,0,0,1-3.41-.66c-1.08-.31-2-.66-2.89-1a34.78,34.78,0,0,0-4.93-1.41c-.83-.18-1.67-.33-2.52-.45s-1.69-.23-2.54-.33-1.69-.19-2.52-.26-1.64-.16-2.52-.2l-2.55-.14c-.78-.05-1.54,0-2.3-.05a35.18,35.18,0,0,0-8.72,1.32,42.53,42.53,0,0,0-7.64,2.89,66.57,66.57,0,0,0-11.47,7.25,81.65,81.65,0,0,0-6.68,5.84C562.69,500.42,561.95,501.25,561.95,501.25Z" transform="translate(-3.5 -32.77)"/><path class="cls-12" d="M463.5,546s-20.5-25.5,8-26.5,30.5,2,37.5-5.5,19-21,35-19.5,27.5,13.5,27.5,20-6.5,22-9.5,24.5" transform="translate(-3.5 -32.77)"/><path class="cls-13" d="M463.5,546s-.53-.49-1.42-1.5a39.18,39.18,0,0,1-3.58-4.67,23.87,23.87,0,0,1-3.75-8.7,11.34,11.34,0,0,1,.59-6.51,10.12,10.12,0,0,1,2.12-3.17c.46-.43,1-.87,1.47-1.26s1.06-.73,1.62-1a22.82,22.82,0,0,1,7.15-2.34c1.26-.28,2.47-.34,3.78-.5l3.61-.29c4.92-.36,10.17-.6,15.5-.71,2.64-.09,5.38-.1,7.78-.34a16,16,0,0,0,1.67-.24c.25-.06.53-.09.75-.16l.65-.2a7.58,7.58,0,0,0,2.25-1.31,27.45,27.45,0,0,0,2.51-2.52c.94-1,1.91-2.11,2.92-3.16,2-2.11,4.12-4.23,6.41-6.22a60.77,60.77,0,0,1,7.41-5.49,41.5,41.5,0,0,1,8.6-4,33,33,0,0,1,9.47-1.49l2.38.13.59,0,.29,0h.07l.24,0,.13,0,1,.16c.68.12,1.3.19,2,.35l2.28.56a38.05,38.05,0,0,1,8.09,3.2,37,37,0,0,1,6.84,4.6,32.08,32.08,0,0,1,5.4,5.71,19.31,19.31,0,0,1,3.37,7,9.45,9.45,0,0,1,.23,2.11v.34s0,.28,0,.18v.1l0,.39-.1.77-.34,1.76-.42,1.53a56.39,56.39,0,0,1-2,5.39,65,65,0,0,1-4.16,8.17,34.81,34.81,0,0,1-3.37,4.83,8.7,8.7,0,0,1-1.11,1.09L562,539l.32-.42a10.94,10.94,0,0,0,.78-1.29,45.5,45.5,0,0,0,2.18-5.3c.82-2.33,1.69-5.2,2.51-8.5a52.53,52.53,0,0,0,1-5.23l.16-1.37.07-1.23a5.08,5.08,0,0,0-.35-2.32,14.71,14.71,0,0,0-3-4.54,27.26,27.26,0,0,0-4.84-4.14c-.9-.64-1.88-1.2-2.85-1.78s-2-1.08-3.1-1.5a33.93,33.93,0,0,0-6.66-2.11l-1.64-.3c-.59-.09-1.32-.15-2-.23l-1-.11h-.71l-1.73,0a28,28,0,0,0-6.87,1.36,37.15,37.15,0,0,0-6.64,3.27,53.09,53.09,0,0,0-6.22,4.71c-2,1.72-4,3.62-5.87,5.6l-2.9,3a35.13,35.13,0,0,1-3.55,3.32,16,16,0,0,1-5,2.67l-1.35.35c-.45.11-.86.15-1.29.22a24.25,24.25,0,0,1-2.42.24c-3.08.15-5.77,0-8.46-.08-5.34-.2-10.4-.4-15.26-.5l-3.62-.08c-1.05,0-2.19,0-3.21.07a18.41,18.41,0,0,0-5.66,1.06c-.41.15-.76.35-1.14.51s-.66.41-1,.62a6.4,6.4,0,0,0-1.45,1.58,7.43,7.43,0,0,0-1.06,4.25,24.5,24.5,0,0,0,1.92,8.22,53.37,53.37,0,0,0,2.43,5.2C463.13,545.38,463.5,546,463.5,546Z" transform="translate(-3.5 -32.77)"/><path class="cls-1" d="M701.63,516.57a3.41,3.41,0,0,0,1.6-2.78v0c0-.59,0-1.17,0-1.74.07-2.29.17-4.42.28-6.25s.24-3.35.35-4.42c.05-.53.1-1,.13-1.24s.05.51.05.51,0-.8.05-.51.08.7.13,1.24c.11,1.07.23,2.59.35,4.42s.22,4,.28,6.25c0,.57,0,1.15,0,1.74v0a3.35,3.35,0,0,0,1.62,2.75h0a2.14,2.14,0,0,0,1,.32l.42,0c1.22.11,2.36.26,3.34.44s1.79.38,2.36.54c.29.08.51.16.66.2l.23.08-.23.08c-.15,0-.38.13-.66.2-.57.16-1.39.36-2.36.54s-2.12.34-3.34.44h0a3.17,3.17,0,0,0-1.65.64l-.24.19a2.7,2.7,0,0,0-1.05,2.1c0,.79,0,1.58,0,2.37q0,.9,0,1.78c0,.59,0,1.17,0,1.74-.07,2.29-.17,4.42-.28,6.25s-.24,3.35-.35,4.42c-.05.53-.1,1-.13,1.24s-.05.44-.05.44,0-.15-.05-.44-.08-.7-.13-1.24c-.11-1.07-.24-2.59-.35-4.42s-.22-4-.28-6.25c0-.57,0-1.15,0-1.74s0-1.18,0-1.78c0-.8,0-1.62,0-2.43a2.61,2.61,0,0,0-1-2l-.24-.19a3.08,3.08,0,0,0-1.65-.67h0c-1.22-.1-2.36-.26-3.34-.44s-1.79-.38-2.36-.54c-.29-.08-.51-.16-.66-.21l-.23-.08.23-.08c.15,0,.38-.13.66-.21.57-.16,1.39-.36,2.36-.54s2.12-.34,3.34-.44l.45,0a1.86,1.86,0,0,0,.88-.29Z" transform="translate(-3.5 -32.77)"/><path class="cls-1" d="M366.95,487.83a5.94,5.94,0,0,0,2.78-4.83v0c0-1,0-2,.08-3,.12-4,.29-7.69.49-10.87s.42-5.83.61-7.69c.09-.93.18-1.66.23-2.15s.09.89.09.89,0-1.39.09-.89.14,1.23.23,2.15c.18,1.86.41,4.51.61,7.69s.38,6.89.49,10.87c0,1,.06,2,.08,3v0a5.83,5.83,0,0,0,2.82,4.79h0a3.72,3.72,0,0,0,1.69.55l.73.06c2.13.18,4.11.46,5.82.77s3.12.66,4.11.94c.5.14.89.28,1.15.36l.41.14-.41.14c-.27.08-.66.22-1.15.36-1,.28-2.41.63-4.11.94s-3.69.58-5.82.77h0a5.51,5.51,0,0,0-2.87,1.12l-.41.33a4.69,4.69,0,0,0-1.83,3.65c0,1.38,0,2.76,0,4.12q0,1.57-.06,3.1c0,1,0,2-.08,3-.12,4-.29,7.69-.49,10.87s-.43,5.83-.61,7.69c-.09.93-.18,1.66-.23,2.15s-.09.76-.09.76,0-.27-.09-.76-.14-1.23-.23-2.15c-.18-1.86-.41-4.51-.61-7.69s-.38-6.89-.49-10.87c0-1-.05-2-.08-3s0-2.06-.06-3.1c0-1.4,0-2.81,0-4.23a4.53,4.53,0,0,0-1.69-3.48l-.41-.34a5.36,5.36,0,0,0-2.87-1.16h0c-2.13-.18-4.11-.45-5.82-.77s-3.12-.66-4.11-.94c-.5-.14-.89-.28-1.15-.36l-.41-.14.41-.14c.27-.08.66-.22,1.15-.36,1-.28,2.41-.63,4.11-.94s3.69-.58,5.82-.77l.79-.07a3.23,3.23,0,0,0,1.53-.5Z" transform="translate(-3.5 -32.77)"/><path class="cls-1" d="M929,474.59a3.41,3.41,0,0,0,1.6-2.78v0c0-.59,0-1.17,0-1.74.07-2.29.17-4.42.28-6.25s.24-3.35.35-4.42c.05-.53.1-1,.13-1.24s.05.51.05.51,0-.8.05-.51.08.7.13,1.24c.11,1.07.23,2.59.35,4.42s.22,4,.28,6.25c0,.57,0,1.15,0,1.74v0a3.35,3.35,0,0,0,1.62,2.75h0a2.14,2.14,0,0,0,1,.32l.42,0c1.22.11,2.36.26,3.34.44s1.79.38,2.36.54c.29.08.51.16.66.2l.23.08-.23.08c-.15,0-.38.13-.66.2-.57.16-1.39.36-2.36.54s-2.12.34-3.34.44h0a3.17,3.17,0,0,0-1.65.64l-.24.19a2.7,2.7,0,0,0-1.05,2.1c0,.79,0,1.58,0,2.37q0,.9,0,1.78c0,.59,0,1.17,0,1.74-.07,2.29-.17,4.42-.28,6.25s-.24,3.35-.35,4.42c-.05.53-.1,1-.13,1.24s-.05.44-.05.44,0-.15-.05-.44-.08-.7-.13-1.24c-.11-1.07-.24-2.59-.35-4.42s-.22-4-.28-6.25c0-.57,0-1.15,0-1.74s0-1.18,0-1.78c0-.8,0-1.62,0-2.43a2.61,2.61,0,0,0-1-2l-.24-.19a3.08,3.08,0,0,0-1.65-.67h0c-1.22-.1-2.36-.26-3.34-.44s-1.79-.38-2.36-.54c-.29-.08-.51-.16-.66-.21l-.23-.08.23-.08c.15,0,.38-.13.66-.21.57-.16,1.39-.36,2.36-.54s2.12-.34,3.34-.44l.45,0a1.86,1.86,0,0,0,.88-.29Z" transform="translate(-3.5 -32.77)"/></g></svg>