<svg id="Layer_1" data-name="Layer 1" xmlns="http://www.w3.org/2000/svg" viewBox="0 0 558.09 609.53"><defs><style>.cls-1{fill:#e63947;}.cls-2{fill:#31393c;}</style></defs><title>Strength</title><path class="cls-1" d="M24.93,387.85l79.52,186.53a17,17,0,0,0,13.11,10.11C242.89,603.22,536.75,547.08,548,463.32c7.29-54.57,2.56-68.15-.9-104.66-6.06-63.94-16-208.52-125.33-256.25,0,0,3.37-55.07-32.74-92.07a29.48,29.48,0,0,0-21.12-8.87H293.08a41.19,41.19,0,0,0-28.42,10.9c-3.92,3.73-7,22.85-7,28v68.07a35.6,35.6,0,0,0,14.45,28.6c19.26,14.27,53.86,36.18,79,31.17,10.52-2.09,20.36-1.28,27.52-3.25,10.38-2.83,17.92-4.88,19.94,3,10.61,41.35,26,118.79,18.57,170.76a40.33,40.33,0,0,1-15.14,26.17l4.07-3.52a10.2,10.2,0,0,1-15.38-3.5c-9.18-18.38-38.94-47.27-104.16-39.25-45.86,5.65-72.45,47.87-82.7,68.18A8.32,8.32,0,0,1,190.72,389C172.18,371.46,80.08,335,30,369.89A14.81,14.81,0,0,0,24.93,387.85Z" transform="translate(-23.72 -1.47)"/><path class="cls-2" d="M229.18,611A384.68,384.68,0,0,1,173,607.3c-.93-.14-2.94-.37-5.66-.69-48.64-5.73-55.14-9.09-57.61-14.91L28.08,400.15a22.71,22.71,0,0,1,8-27.5c55.37-38.21,151.93,1.06,172.46,20.53a1.26,1.26,0,0,0,1.11.34,1.21,1.21,0,0,0,.91-.67c10.18-20.15,39.38-67.7,90.59-74,70.8-8.71,99.51,26.34,110.3,48a3.06,3.06,0,0,0,2.06,1.61,3.25,3.25,0,0,0,2.71-.6,33.53,33.53,0,0,0,12.74-21.65c8.4-57.65-10.83-150.37-23.56-185.85-6.08,7.45-16.91,14.91-36.21,18.75-27.38,5.43-62.48-15.17-87.1-33.42a43.88,43.88,0,0,1-17.65-35.1v-70c0-7.06,3.47-13.76,10.33-19.93A49.41,49.41,0,0,1,308,8.32H384.9a37.82,37.82,0,0,1,26.86,11.25c31.7,32.37,35.59,67.26,35.85,80.22C557.33,153.55,570,291.58,576.15,358.36l.76,8.2c.66,7,1.37,13.16,2.05,19.09,2.92,25.41,5,43.76-1.16,90.11-2.53,18.92-15.27,37.13-37.87,54.12C472.14,580.84,331.77,611,229.18,611ZM122.44,584.32c3.67,1.57,15,4.1,46.62,7.82,2.95.35,5.12.61,6.12.75,96.34,14.45,279.53-17.17,356-74.65,19.37-14.56,30.2-29.5,32.19-44.41,5.95-44.55,4-61.24,1.13-86.52-.69-6-1.41-12.2-2.09-19.38l-.76-8.24c-6.42-69.9-18.37-200-124.44-248.71l-4.64-2.13.42-5.09c0-.36,2.55-39.08-31.63-74a23.15,23.15,0,0,0-16.45-6.88H308a34.91,34.91,0,0,0-23.49,8.63c-2.51,2.26-5.5,5.67-5.5,9.1v70A29.24,29.24,0,0,0,290.75,134c31,23,58.53,34.23,75.58,30.83,21.93-4.36,28.76-13.68,30.88-18.84a9.76,9.76,0,0,1,8.77-6.06h.26a9.76,9.76,0,0,1,8.81,5.57c13.14,27.7,38.08,135.81,28.31,202.83a48,48,0,0,1-18.22,31,17.73,17.73,0,0,1-26.76-6c-9.07-18.23-33.54-47.67-95.47-40.05-44.24,5.44-70.24,48-79.37,66.1a15.82,15.82,0,0,1-25,4.34c-15.86-15-105.73-52.53-154.17-19.11a8.1,8.1,0,0,0-2.85,9.79Z" transform="translate(-23.72 -1.47)"/></svg>