<svg id="Layer_1" data-name="Layer 1" xmlns="http://www.w3.org/2000/svg" viewBox="0 0 611.34 315.93"><defs><style>.cls-1{fill:#5599d3;}.cls-2{fill:#fff;}.cls-3{fill:#31393c;}</style></defs><title>Wisdom</title><path class="cls-1" d="M4.45,304.14C-3.24,301.7,0,288.91,6.92,284.78,47.42,260.67,159.11,153.3,277.13,153.3c118.72,0,230.52,88.78,277.21,102.57,7.62,2.26,8.37,13.25,3,19.12C524.74,310.69,430,425,277.13,425,141,425,57.94,321.11,4.45,304.14Z" transform="translate(0 -153.3)"/><path class="cls-2" d="M174.49,210.27a152.85,152.85,0,1,0,267.08-2.13s-67.73-31.83-144.09-29S174.49,210.27,174.49,210.27Z" transform="translate(0 -153.3)"/><path class="cls-1" d="M416,188.64c26.11,6.5,23.86,49.19,23.86,78.13A139.74,139.74,0,1,1,170.43,214.5S280.17,154.84,416,188.64Z" transform="translate(0 -153.3)"/><path class="cls-3" d="M308.62,469.23c-107.79,0-184.29-55.68-240.15-96.33-18.45-13.43-34.39-25-47.66-31.63h0A14.13,14.13,0,0,1,13,328.7a21.35,21.35,0,0,1,10-18.38c8.55-5.09,20.8-14.23,35-24.81C114.42,243.43,208.89,173,308.62,173c91.2,0,181.59,47.6,241.41,79.09,22.12,11.65,39.6,20.85,50.08,23.83a15.19,15.19,0,0,1,10.49,10.82,20.63,20.63,0,0,1-4.51,19.17c-2.26,2.47-4.81,5.34-7.65,8.53C557.16,360.75,460.48,469.23,308.62,469.23ZM26.26,330.33c14.19,7.06,30.5,18.94,49.4,32.69,54.5,39.66,129.15,94,233,94C455,457,549.12,351.39,589.31,306.3c2.88-3.23,5.47-6.13,7.76-8.64a8.55,8.55,0,0,0,1.78-7.59c-.56-2-1.71-2.3-2.09-2.41-11.7-3.32-29.67-12.79-52.43-24.77C485.58,232,396.8,185.21,308.62,185.21c-95.67,0-188.11,68.92-243.33,110.1-15.06,11.23-27,20.1-36.05,25.51a9.08,9.08,0,0,0-4,7.43c.05,1.59.73,1.92,1.05,2.08Z" transform="translate(0 -153.3)"/><path class="cls-3" d="M308.62,442.57c-87.65,0-159-71.31-159-158.95,0-28,7.13-46.46,19.46-69l.62-1.13,1-.79c2-1.51,49.06-36.92,126.49-39.75,76.94-2.8,144.08,28.28,146.9,29.61l1.76.82,1,1.69a159,159,0,0,1,20.7,78.5C467.58,371.26,396.27,442.57,308.62,442.57ZM179.19,221.74c-11,20.22-17.3,37-17.3,61.88,0,80.91,65.82,146.73,146.73,146.73s146.74-65.82,146.74-146.73a146.82,146.82,0,0,0-18.14-70.73c-11-4.82-72.23-30.13-139.52-27.68S186.25,216.77,179.19,221.74Z" transform="translate(0 -153.3)"/></svg>